font.ufo
<glyph name="M" format="2">
	<advance width="868"/>
	<unicode hex="004D"/>
	<outline>
		<contour>
			<point x="349" y="41" type="curve"/>
			<point x="521" y="41" type="line"/>
			<point x="574" y="220"/>
			<point x="646" y="480"/>
			<point x="659" y="533" type="curve"/>
			<point x="663" y="532" type="line"/>
			<point x="658" y="496"/>
			<point x="654" y="417"/>
			<point x="654" y="363" type="curve" smooth="yes"/>
			<point x="654" y="206"/>
			<point x="654" y="162"/>
			<point x="654" y="9" type="curve"/>
			<point x="805" y="9" type="line"/>
			<point x="805" y="642" type="line"/>
			<point x="541" y="642" type="line"/>
			<point x="505" y="500"/>
			<point x="451" y="318"/>
			<point x="438" y="216" type="curve"/>
			<point x="436" y="216" type="line"/>
			<point x="422" y="318"/>
			<point x="367" y="501"/>
			<point x="331" y="642" type="curve"/>
			<point x="63" y="642" type="line"/>
			<point x="63" y="9" type="line"/>
			<point x="216" y="9" type="line"/>
			<point x="216" y="162"/>
			<point x="216" y="206"/>
			<point x="216" y="363" type="curve" smooth="yes"/>
			<point x="216" y="417"/>
			<point x="212" y="496"/>
			<point x="207" y="532" type="curve"/>
			<point x="211" y="533" type="line"/>
			<point x="224" y="480"/>
			<point x="293" y="221"/>
		</contour>
	</outline>
</glyph>
<glyph name="O" format="2">
	<advance width="701"/>
	<unicode hex="004F"/>
	<outline>
		<contour>
			<point x="40" y="326" type="curve" smooth="yes"/>
			<point x="40" y="83"/>
			<point x="109" y="0"/>
			<point x="351" y="0" type="curve" smooth="yes"/>
			<point x="593" y="0"/>
			<point x="661" y="83"/>
			<point x="661" y="326" type="curve" smooth="yes"/>
			<point x="661" y="567"/>
			<point x="593" y="651"/>
			<point x="351" y="651" type="curve" smooth="yes"/>
			<point x="109" y="651"/>
			<point x="40" y="567"/>
		</contour>
		<contour>
			<point x="351" y="140" type="curve" smooth="yes"/>
			<point x="224" y="140"/>
			<point x="200" y="179"/>
			<point x="200" y="326" type="curve" smooth="yes"/>
			<point x="200" y="469"/>
			<point x="224" y="511"/>
			<point x="351" y="511" type="curve" smooth="yes"/>
			<point x="479" y="511"/>
			<point x="501" y="469"/>
			<point x="501" y="326" type="curve" smooth="yes"/>
			<point x="501" y="179"/>
			<point x="479" y="140"/>
		</contour>
	</outline>
</glyph>
<glyph name="backslash" format="2">
	<advance width="464"/>
	<unicode hex="005C"/>
	<note>
		backslash
	</note>
	<outline>
		<contour>
			<point x="180" y="642" type="line"/>
			<point x="20" y="642" type="line"/>
			<point x="324" y="-102" type="line"/>
			<point x="484" y="-102" type="line"/>
		</contour>
	</outline>
</glyph>
<glyph name="f" format="2">
	<advance width="400"/>
	<unicode hex="0066"/>
	<outline>
		<contour>
			<point x="91" y="521" type="curve" smooth="yes"/>
			<point x="91" y="9" type="line"/>
			<point x="246" y="9" type="line"/>
			<point x="246" y="529" type="line" smooth="yes"/>
			<point x="246" y="563"/>
			<point x="262" y="580"/>
			<point x="307" y="580" type="curve" smooth="yes"/>
			<point x="328" y="580"/>
			<point x="353" y="578"/>
			<point x="377" y="575" type="curve"/>
			<point x="380" y="577" type="line"/>
			<point x="380" y="689" type="line"/>
			<point x="353" y="698"/>
			<point x="317" y="707"/>
			<point x="274" y="707" type="curve" smooth="yes"/>
			<point x="153" y="707"/>
			<point x="91" y="653"/>
		</contour>
		<contour>
			<point x="20" y="366" type="line"/>
			<point x="380" y="366" type="line"/>
			<point x="380" y="496" type="line"/>
			<point x="20" y="496" type="line"/>
		</contour>
	</outline>
</glyph>
<glyph name="k" format="2">
	<advance width="537"/>
	<unicode hex="006B"/>
	<outline>
		<contour>
			<point x="220" y="9" type="line"/>
			<point x="220" y="682" type="line"/>
			<point x="60" y="682" type="line"/>
			<point x="60" y="9" type="line"/>
		</contour>
		<contour>
			<point x="220" y="9" type="line"/>
			<point x="220" y="682" type="line"/>
			<point x="60" y="682" type="line"/>
			<point x="60" y="9" type="line"/>
		</contour>
		<contour>
			<point x="376" y="262" type="line"/>
			<point x="524" y="492" type="line"/>
			<point x="524" y="496" type="line"/>
			<point x="348" y="496" type="line"/>
			<point x="222" y="290" type="line"/>
			<point x="188" y="290" type="line"/>
			<point x="220" y="235" type="line"/>
			<point x="223" y="234" type="line"/>
			<point x="364" y="9" type="line"/>
			<point x="548" y="9" type="line"/>
			<point x="376" y="258" type="line"/>
		</contour>
	</outline>
</glyph>
<glyph name="q" format="2">
	<advance width="579"/>
	<unicode hex="0071"/>
	<outline>
		<contour>
			<point x="359" y="493" type="line"/>
			<point x="359" y="-177" type="line"/>
			<point x="519" y="-177" type="line"/>
			<point x="519" y="484" type="line"/>
		</contour>
		<contour>
			<point x="25" y="227" type="curve" smooth="yes"/>
			<point x="25" y="75"/>
			<point x="97" y="0"/>
			<point x="216" y="0" type="curve" smooth="yes"/>
			<point x="286" y="0"/>
			<point x="338" y="26"/>
			<point x="356" y="80" type="curve"/>
			<point x="361" y="80" type="line"/>
			<point x="359" y="244" type="line"/>
			<point x="359" y="166"/>
			<point x="321" y="136"/>
			<point x="268" y="136" type="curve" smooth="yes"/>
			<point x="198" y="136"/>
			<point x="181" y="173"/>
			<point x="181" y="251" type="curve" smooth="yes"/>
			<point x="181" y="335"/>
			<point x="209" y="365"/>
			<point x="283" y="365" type="curve" smooth="yes"/>
			<point x="316" y="365"/>
			<point x="360" y="361"/>
			<point x="382" y="356" type="curve"/>
			<point x="519" y="342" type="line"/>
			<point x="519" y="487" type="line"/>
			<point x="516" y="489" type="line"/>
			<point x="446" y="496"/>
			<point x="376" y="501"/>
			<point x="277" y="501" type="curve" smooth="yes"/>
			<point x="91" y="501"/>
			<point x="25" y="407"/>
		</contour>
	</outline>
</glyph>
<glyph name="yen" format="2">
	<advance width="570"/>
	<unicode hex="00A5"/>
	<outline>
		<contour>
			<point x="67" y="344" type="line"/>
			<point x="67" y="244" type="line"/>
			<point x="498" y="244" type="line"/>
			<point x="498" y="344" type="line"/>
		</contour>
		<contour>
			<point x="67" y="204" type="line"/>
			<point x="67" y="104" type="line"/>
			<point x="498" y="104" type="line"/>
			<point x="498" y="204" type="line"/>
		</contour>
		<component base="Y"/>
	</outline>
</glyph>
<glyph name="brokenbar" format="2">
	<advance width="280"/>
	<unicode hex="00A6"/>
	<outline>
		<contour>
			<point x="236" y="139" type="line"/>
			<point x="76" y="139" type="line"/>
			<point x="76" y="-301" type="line"/>
			<point x="236" y="-301" type="line"/>
		</contour>
		<contour>
			<point x="76" y="241" type="line"/>
			<point x="236" y="241" type="line"/>
			<point x="236" y="682" type="line"/>
			<point x="76" y="682" type="line"/>
		</contour>
	</outline>
</glyph>
<glyph name="ordmasculine" format="2">
	<advance width="470"/>
	<unicode hex="00BA"/>
	<outline>
		<contour>
			<point x="30" y="484" type="curve" smooth="yes"/>
			<point x="30" y="340"/>
			<point x="87" y="280"/>
			<point x="235" y="280" type="curve" smooth="yes"/>
			<point x="384" y="280"/>
			<point x="440" y="340"/>
			<point x="440" y="484" type="curve" smooth="yes"/>
			<point x="440" y="630"/>
			<point x="384" y="691"/>
			<point x="235" y="691" type="curve" smooth="yes"/>
			<point x="87" y="691"/>
			<point x="30" y="630"/>
		</contour>
		<contour>
			<point x="235" y="392" type="curve" smooth="yes"/>
			<point x="173" y="392"/>
			<point x="154" y="416"/>
			<point x="154" y="487" type="curve" smooth="yes"/>
			<point x="154" y="553"/>
			<point x="173" y="580"/>
			<point x="235" y="580" type="curve" smooth="yes"/>
			<point x="298" y="580"/>
			<point x="316" y="553"/>
			<point x="316" y="487" type="curve" smooth="yes"/>
			<point x="316" y="416"/>
			<point x="298" y="392"/>
		</contour>
	</outline>
</glyph>
<glyph name="oslash" format="2">
	<advance width="530"/>
	<unicode hex="00F8"/>
	<outline>
		<contour>
			<point x="540" y="496" type="line"/>
			<point x="539" y="496" type="line"/>
			<point x="-10" y="124" type="line"/>
			<point x="-10" y="9" type="line"/>
			<point x="-9" y="9" type="line"/>
			<point x="540" y="381" type="line"/>
		</contour>
		<contour>
			<point x="16" y="249" type="curve" smooth="yes"/>
			<point x="16" y="73"/>
			<point x="85" y="0"/>
			<point x="266" y="0" type="curve" smooth="yes"/>
			<point x="448" y="0"/>
			<point x="516" y="73"/>
			<point x="516" y="249" type="curve" smooth="yes"/>
			<point x="516" y="427"/>
			<point x="448" y="501"/>
			<point x="266" y="501" type="curve" smooth="yes"/>
			<point x="85" y="501"/>
			<point x="16" y="427"/>
		</contour>
		<contour>
			<point x="266" y="128" type="curve" smooth="yes"/>
			<point x="185" y="128"/>
			<point x="159" y="159"/>
			<point x="159" y="252" type="curve" smooth="yes"/>
			<point x="159" y="340"/>
			<point x="185" y="375"/>
			<point x="266" y="375" type="curve" smooth="yes"/>
			<point x="349" y="375"/>
			<point x="373" y="340"/>
			<point x="373" y="252" type="curve" smooth="yes"/>
			<point x="373" y="159"/>
			<point x="349" y="128"/>
		</contour>
	</outline>
</glyph>
<glyph name="tilde" format="2">
	<advance width="374"/>
	<unicode hex="02DC"/>
	<outline>
		<contour>
			<point x="281" y="682" type="curve" smooth="yes"/>
			<point x="336" y="682"/>
			<point x="371" y="707"/>
			<point x="371" y="766" type="curve" smooth="yes"/>
			<point x="371" y="784"/>
			<point x="368" y="810"/>
			<point x="368" y="810" type="curve" smooth="yes"/>
			<point x="282" y="810" type="line"/>
			<point x="283" y="806"/>
			<point x="283" y="802"/>
			<point x="283" y="799" type="curve" smooth="yes"/>
			<point x="283" y="779"/>
			<point x="272" y="772"/>
			<point x="257" y="772" type="curve" smooth="yes"/>
			<point x="213" y="772"/>
			<point x="142" y="819"/>
			<point x="92" y="819" type="curve" smooth="yes"/>
			<point x="38" y="819"/>
			<point x="3" y="794"/>
			<point x="3" y="735" type="curve" smooth="yes"/>
			<point x="3" y="718"/>
			<point x="6" y="691"/>
			<point x="6" y="691" type="curve"/>
			<point x="91" y="691" type="line"/>
			<point x="91" y="695"/>
			<point x="90" y="699"/>
			<point x="90" y="702" type="curve" smooth="yes"/>
			<point x="90" y="721"/>
			<point x="101" y="729"/>
			<point x="117" y="729" type="curve" smooth="yes"/>
			<point x="160" y="729"/>
			<point x="232" y="682"/>
		</contour>
	</outline>
</glyph>
<glyph name="dvCandrabindu" format="2">
	<advance width="0"/>
	<unicode hex="0901"/>
	<anchor x="-66" y="607" name="_abvm.bindu"/>
	<outline>
		<contour>
			<point x="-57" y="963" type="curve"/>
			<point x="-55" y="941"/>
			<point x="-54" y="926"/>
			<point x="-54" y="910" type="curve" smooth="yes"/>
			<point x="-54" y="894"/>
			<point x="-55" y="878"/>
			<point x="-57" y="857" type="curve"/>
			<point x="-83" y="852"/>
			<point x="-108" y="849"/>
			<point x="-133" y="849" type="curve" smooth="yes"/>
			<point x="-157" y="849"/>
			<point x="-181" y="852"/>
			<point x="-206" y="857" type="curve"/>
			<point x="-209" y="877"/>
			<point x="-210" y="893"/>
			<point x="-210" y="909" type="curve" smooth="yes"/>
			<point x="-210" y="924"/>
			<point x="-209" y="941"/>
			<point x="-206" y="963" type="curve"/>
			<point x="-181" y="968"/>
			<point x="-156" y="970"/>
			<point x="-131" y="970" type="curve" smooth="yes"/>
			<point x="-107" y="970"/>
			<point x="-82" y="968"/>
		</contour>
		<contour>
			<point x="-51" y="837" type="curve"/>
			<point x="78" y="837" type="line"/>
			<point x="78" y="704"/>
			<point x="45" y="674"/>
			<point x="-131" y="674" type="curve" smooth="yes"/>
			<point x="-318" y="674"/>
			<point x="-344" y="704"/>
			<point x="-344" y="837" type="curve"/>
			<point x="-214" y="837" type="line"/>
			<point x="-214" y="789"/>
			<point x="-206" y="781"/>
			<point x="-131" y="780" type="curve" smooth="yes"/>
			<point x="-56" y="779"/>
			<point x="-51" y="789"/>
		</contour>
	</outline>
</glyph>
<glyph name="dvKA" format="2">
	<advance width="920"/>
	<unicode hex="0915"/>
	<anchor x="386" y="-51" name="blwm.virama"/>
	<anchor x="533" y="607" name="abvm.bindu"/>
	<anchor x="438" y="-71" name="blwm.u"/>
	<anchor x="534" y="607" name="abvm.e"/>
	<outline>
		<contour>
			<point x="386" y="9" type="line"/>
			<point x="386" y="501" type="line"/>
			<point x="534" y="501" type="line"/>
			<point x="534" y="9" type="line"/>
		</contour>
		<contour>
			<point x="-25" y="500" type="line"/>
			<point x="-25" y="607" type="line"/>
			<point x="945" y="607" type="line"/>
			<point x="945" y="500" type="line"/>
		</contour>
		<contour>
			<point x="193" y="436" type="curve" smooth="yes"/>
			<point x="240" y="436"/>
			<point x="291" y="430"/>
			<point x="328" y="419" type="curve"/>
			<point x="326" y="305" type="line"/>
			<point x="322" y="304" type="line"/>
			<point x="299" y="310"/>
			<point x="272" y="315"/>
			<point x="236" y="315" type="curve" smooth="yes"/>
			<point x="174" y="315"/>
			<point x="160" y="298"/>
			<point x="160" y="248" type="curve" smooth="yes"/>
			<point x="160" y="198"/>
			<point x="174" y="181"/>
			<point x="263" y="181" type="curve" smooth="yes"/>
			<point x="317" y="181"/>
			<point x="361" y="190"/>
			<point x="398" y="210" type="curve"/>
			<point x="386" y="87" type="line"/>
			<point x="384" y="87" type="line"/>
			<point x="354" y="72"/>
			<point x="298" y="62"/>
			<point x="241" y="62" type="curve" smooth="yes"/>
			<point x="71" y="62"/>
			<point x="20" y="108"/>
			<point x="20" y="250" type="curve" smooth="yes"/>
			<point x="20" y="390"/>
			<point x="66" y="436"/>
		</contour>
		<contour>
			<point x="727" y="60" type="curve" smooth="yes"/>
			<point x="680" y="60"/>
			<point x="629" y="66"/>
			<point x="592" y="77" type="curve"/>
			<point x="594" y="191" type="line"/>
			<point x="598" y="192" type="line"/>
			<point x="621" y="186"/>
			<point x="648" y="181"/>
			<point x="684" y="181" type="curve" smooth="yes"/>
			<point x="746" y="181"/>
			<point x="760" y="198"/>
			<point x="760" y="248" type="curve" smooth="yes"/>
			<point x="760" y="298"/>
			<point x="746" y="315"/>
			<point x="657" y="315" type="curve" smooth="yes"/>
			<point x="603" y="315"/>
			<point x="559" y="306"/>
			<point x="522" y="286" type="curve"/>
			<point x="534" y="409" type="line"/>
			<point x="536" y="409" type="line"/>
			<point x="566" y="424"/>
			<point x="622" y="434"/>
			<point x="679" y="434" type="curve" smooth="yes"/>
			<point x="849" y="434"/>
			<point x="900" y="388"/>
			<point x="900" y="246" type="curve" smooth="yes"/>
			<point x="900" y="106"/>
			<point x="854" y="60"/>
		</contour>
	</outline>
</glyph>
<glyph name="dvTTA" format="2">
	<advance width="493"/>
	<unicode hex="091F"/>
	<anchor x="265" y="-90" name="blwm.u"/>
	<outline>
		<contour>
			<point x="282" y="320" type="line"/>
			<point x="282" y="505" type="line"/>
			<point x="420" y="505" type="line"/>
			<point x="420" y="320" type="line"/>
		</contour>
		<contour>
			<point x="-25" y="500" type="line"/>
			<point x="-25" y="607" type="line"/>
			<point x="533" y="607" type="line"/>
			<point x="533" y="500" type="line"/>
		</contour>
		<contour>
			<point x="458" y="145" type="curve"/>
			<point x="460" y="144" type="line"/>
			<point x="460" y="23" type="line"/>
			<point x="406" y="8"/>
			<point x="348" y="0"/>
			<point x="262" y="0" type="curve" smooth="yes"/>
			<point x="121" y="0"/>
			<point x="31" y="48"/>
			<point x="31" y="218" type="curve" smooth="yes"/>
			<point x="31" y="388"/>
			<point x="102" y="436"/>
			<point x="228" y="436" type="curve" smooth="yes"/>
			<point x="287" y="436"/>
			<point x="391" y="434"/>
			<point x="412" y="432" type="curve"/>
			<point x="412" y="320" type="line"/>
			<point x="276" y="320" type="line" smooth="yes"/>
			<point x="200" y="320"/>
			<point x="175" y="302"/>
			<point x="175" y="220" type="curve" smooth="yes"/>
			<point x="175" y="137"/>
			<point x="205" y="128"/>
			<point x="297" y="128" type="curve" smooth="yes"/>
			<point x="349" y="128"/>
			<point x="414" y="133"/>
		</contour>
	</outline>
</glyph>
<glyph name="dvHA" format="2">
	<advance width="525"/>
	<unicode hex="0939"/>
	<anchor x="211" y="-71" name="blwm.virama"/>
	<anchor x="468" y="607" name="abvm.bindu"/>
	<anchor x="323" y="-91" name="blwm.u"/>
	<anchor x="469" y="607" name="abvm.e"/>
	<outline>
		<contour>
			<point x="289" y="-20" type="curve" smooth="yes"/>
			<point x="109" y="-20"/>
			<point x="37" y="17"/>
			<point x="37" y="122" type="curve" smooth="yes"/>
			<point x="37" y="199"/>
			<point x="68" y="226"/>
			<point x="122" y="236" type="curve"/>
			<point x="122" y="239" type="line"/>
			<point x="70" y="250"/>
			<point x="46" y="280"/>
			<point x="46" y="338" type="curve" smooth="yes"/>
			<point x="46" y="410"/>
			<point x="81" y="449"/>
			<point x="203" y="449" type="curve" smooth="yes"/>
			<point x="470" y="449" type="line"/>
			<point x="470" y="347" type="line"/>
			<point x="244" y="347" type="line" smooth="yes"/>
			<point x="195" y="347"/>
			<point x="183" y="342"/>
			<point x="183" y="315" type="curve" smooth="yes"/>
			<point x="183" y="288"/>
			<point x="195" y="284"/>
			<point x="264" y="284" type="curve"/>
			<point x="333" y="284" type="line"/>
			<point x="449" y="284"/>
			<point x="483" y="257"/>
			<point x="483" y="176" type="curve" smooth="yes"/>
			<point x="483" y="144" type="line"/>
			<point x="341" y="144" type="line"/>
			<point x="341" y="152" type="line" smooth="yes"/>
			<point x="341" y="180"/>
			<point x="338" y="185"/>
			<point x="249" y="185" type="curve" smooth="yes"/>
			<point x="190" y="185"/>
			<point x="167" y="175"/>
			<point x="167" y="139" type="curve" smooth="yes"/>
			<point x="167" y="101"/>
			<point x="196" y="90"/>
			<point x="301" y="90" type="curve" smooth="yes"/>
			<point x="362" y="90"/>
			<point x="444" y="92"/>
			<point x="478" y="96" type="curve"/>
			<point x="480" y="95" type="line"/>
			<point x="480" y="-7" type="line"/>
			<point x="443" y="-14"/>
			<point x="367" y="-20"/>
		</contour>
		<contour>
			<point x="-33" y="500" type="line"/>
			<point x="-33" y="607" type="line"/>
			<point x="560" y="607" type="line"/>
			<point x="560" y="500" type="line"/>
		</contour>
		<contour>
			<point x="347" y="370" type="line"/>
			<point x="347" y="517" type="line"/>
			<point x="470" y="517" type="line"/>
			<point x="470" y="370" type="line"/>
		</contour>
	</outline>
</glyph>
<glyph name="dvmvR" format="2">
	<advance width="0"/>
	<unicode hex="0943"/>
	<anchor x="-156" y="-67" name="_blwm.u"/>
	<outline>
		<contour>
			<point x="-60" y="-323" type="curve"/>
			<point x="-60" y="-216" type="line"/>
			<point x="-63" y="-214" type="line"/>
			<point x="-90" y="-220"/>
			<point x="-120" y="-223"/>
			<point x="-148" y="-223" type="curve" smooth="yes"/>
			<point x="-201" y="-223"/>
			<point x="-221" y="-217"/>
			<point x="-221" y="-179" type="curve" smooth="yes"/>
			<point x="-221" y="-146"/>
			<point x="-203" y="-135"/>
			<point x="-167" y="-135" type="curve" smooth="yes"/>
			<point x="-60" y="-135" type="line"/>
			<point x="-60" y="-26" type="line"/>
			<point x="-150" y="-26" type="line" smooth="yes"/>
			<point x="-286" y="-26"/>
			<point x="-340" y="-60"/>
			<point x="-340" y="-180" type="curve" smooth="yes"/>
			<point x="-340" y="-304"/>
			<point x="-286" y="-333"/>
			<point x="-150" y="-333" type="curve" smooth="yes"/>
			<point x="-120" y="-333"/>
			<point x="-88" y="-330"/>
		</contour>
	</outline>
</glyph>
<glyph name="dvmEcandra" format="2">
	<advance width="0"/>
	<unicode hex="0945"/>
	<anchor x="-67" y="607" name="_abvm.bindu"/>
	<outline>
		<contour>
			<point x="-51" y="837" type="curve"/>
			<point x="78" y="837" type="line"/>
			<point x="78" y="704"/>
			<point x="45" y="674"/>
			<point x="-131" y="674" type="curve" smooth="yes"/>
			<point x="-318" y="674"/>
			<point x="-344" y="704"/>
			<point x="-344" y="837" type="curve"/>
			<point x="-214" y="837" type="line"/>
			<point x="-214" y="789"/>
			<point x="-206" y="781"/>
			<point x="-131" y="780" type="curve" smooth="yes"/>
			<point x="-56" y="779"/>
			<point x="-51" y="789"/>
		</contour>
	</outline>
</glyph>
<glyph name="danda" format="2">
	<advance width="600"/>
	<unicode hex="0964"/>
	<outline>
		<contour>
			<point x="232" y="667" type="line"/>
			<point x="232" y="-59" type="line"/>
			<point x="380" y="-59" type="line"/>
			<point x="380" y="667" type="line"/>
		</contour>
	</outline>
</glyph>
<glyph name="zerowidthjoiner" format="2">
	<advance width="0"/>
	<unicode hex="200D"/>
	<outline>
		<contour>
			<point x="96" y="560" type="line"/>
			<point x="129" y="593" type="line"/>
			<point x="33" y="688" type="line"/>
			<point x="129" y="784" type="line"/>
			<point x="97" y="816" type="line"/>
			<point x="1" y="721" type="line"/>
			<point x="-94" y="816" type="line"/>
			<point x="-127" y="783" type="line"/>
			<point x="-32" y="688" type="line"/>
			<point x="-125" y="595" type="line"/>
			<point x="-92" y="562" type="line"/>
			<point x="-23" y="635" type="line"/>
			<point x="-23" y="-230" type="line"/>
			<point x="24" y="-230" type="line"/>
			<point x="24" y="635" type="line"/>
		</contour>
	</outline>
</glyph>
<glyph name="foursuperior" format="2">
	<advance width="408"/>
	<unicode hex="2074"/>
	<outline>
		<contour>
			<point x="20" y="390" type="line"/>
			<point x="20" y="301" type="line"/>
			<point x="229" y="301" type="line"/>
			<point x="231" y="235" type="line"/>
			<point x="330" y="235" type="line"/>
			<point x="330" y="301" type="line"/>
			<point x="398" y="301" type="line"/>
			<point x="398" y="382" type="line"/>
			<point x="328" y="382" type="line"/>
			<point x="328" y="642" type="line"/>
			<point x="173" y="642" type="line"/>
		</contour>
		<contour>
			<point x="236" y="382" type="line"/>
			<point x="123" y="382" type="line"/>
			<point x="236" y="579" type="line"/>
		</contour>
	</outline>
</glyph>
<glyph name="uni2215" format="2">
	<advance width="576"/>
	<unicode hex="2215"/>
	<outline>
		<contour>
			<point x="0" y="9" type="line"/>
			<point x="150" y="9" type="line"/>
			<point x="576" y="642" type="line"/>
			<point x="426" y="642" type="line"/>
		</contour>
	</outline>
</glyph>
<glyph name="greaterequal" format="2">
	<advance width="581"/>
	<unicode hex="2265"/>
	<note>
		greaterequal
	</note>
	<outline>
		<contour>
			<point x="541" y="129" type="line"/>
			<point x="40" y="129" type="line"/>
			<point x="40" y="9" type="line"/>
			<point x="541" y="9" type="line"/>
		</contour>
		<contour>
			<point x="541" y="469" type="line"/>
			<point x="40" y="594" type="line"/>
			<point x="40" y="463" type="line"/>
			<point x="386" y="378" type="line"/>
			<point x="386" y="377" type="line"/>
			<point x="40" y="292" type="line"/>
			<point x="40" y="161" type="line"/>
			<point x="541" y="286" type="line"/>
		</contour>
	</outline>
</glyph>
<glyph name="dvB" format="2">
	<advance width="421"/>
	<outline>
		<contour>
			<point x="-50" y="500" type="line"/>
			<point x="-50" y="607" type="line"/>
			<point x="476" y="607" type="line"/>
			<point x="476" y="500" type="line"/>
		</contour>
		<contour>
			<point x="264" y="64" type="curve" smooth="yes"/>
			<point x="99" y="64"/>
			<point x="30" y="113"/>
			<point x="30" y="252" type="curve" smooth="yes"/>
			<point x="30" y="392"/>
			<point x="98" y="439"/>
			<point x="221" y="439" type="curve" smooth="yes"/>
			<point x="279" y="439"/>
			<point x="332" y="432"/>
			<point x="371" y="422" type="curve"/>
			<point x="371" y="319" type="line"/>
			<point x="367" y="318" type="line"/>
			<point x="337" y="326"/>
			<point x="293" y="332"/>
			<point x="258" y="332" type="curve" smooth="yes"/>
			<point x="182" y="332"/>
			<point x="162" y="315"/>
			<point x="162" y="254" type="curve" smooth="yes"/>
			<point x="162" y="190"/>
			<point x="196" y="173"/>
			<point x="290" y="173" type="curve" smooth="yes"/>
			<point x="362" y="173"/>
			<point x="452" y="191"/>
			<point x="510" y="219" type="curve"/>
			<point x="563" y="126" type="line"/>
			<point x="483" y="87"/>
			<point x="390" y="64"/>
		</contour>
		<contour>
			<point x="411" y="127" type="line"/>
			<point x="344" y="176" type="line"/>
			<point x="344" y="177" type="line"/>
			<point x="170" y="297" type="line"/>
			<point x="166" y="297" type="line"/>
			<point x="205" y="350" type="line"/>
			<point x="232" y="331" type="line"/>
			<point x="232" y="330" type="line"/>
			<point x="451" y="178" type="line"/>
		</contour>
	</outline>
</glyph>
<glyph name="dvB_BH_RA" format="2">
	<advance width="1057"/>
	<outline>
		<contour>
			<point x="-50" y="500" type="line"/>
			<point x="-50" y="607" type="line"/>
			<point x="476" y="607" type="line"/>
			<point x="476" y="500" type="line"/>
		</contour>
		<contour>
			<point x="265" y="74" type="curve" smooth="yes"/>
			<point x="100" y="74"/>
			<point x="31" y="123"/>
			<point x="31" y="262" type="curve" smooth="yes"/>
			<point x="31" y="402"/>
			<point x="95" y="449"/>
			<point x="217" y="449" type="curve" smooth="yes"/>
			<point x="264" y="449"/>
			<point x="335" y="443"/>
			<point x="372" y="432" type="curve"/>
			<point x="372" y="329" type="line"/>
			<point x="368" y="328" type="line"/>
			<point x="346" y="334"/>
			<point x="294" y="342"/>
			<point x="259" y="342" type="curve" smooth="yes"/>
			<point x="183" y="342"/>
			<point x="163" y="325"/>
			<point x="163" y="264" type="curve" smooth="yes"/>
			<point x="163" y="200"/>
			<point x="197" y="183"/>
			<point x="291" y="183" type="curve" smooth="yes"/>
			<point x="363" y="183"/>
			<point x="453" y="201"/>
			<point x="511" y="229" type="curve"/>
			<point x="564" y="136" type="line"/>
			<point x="484" y="97"/>
			<point x="391" y="74"/>
		</contour>
		<contour>
			<point x="412" y="137" type="line"/>
			<point x="345" y="186" type="line"/>
			<point x="345" y="187" type="line"/>
			<point x="171" y="307" type="line"/>
			<point x="167" y="307" type="line"/>
			<point x="206" y="360" type="line"/>
			<point x="233" y="341" type="line"/>
			<point x="233" y="340" type="line"/>
			<point x="452" y="188" type="line"/>
		</contour>
		<component base="dvBH_RA" xOffset="421"/>
	</outline>
</glyph>
<glyph name="dvB_JA" format="2">
	<advance width="1074"/>
	<outline>
		<contour>
			<point x="-60" y="500" type="line"/>
			<point x="-60" y="607" type="line"/>
			<point x="466" y="607" type="line"/>
			<point x="466" y="500" type="line"/>
		</contour>
		<contour>
			<point x="495" y="287" type="line"/>
			<point x="495" y="403" type="line"/>
			<point x="970" y="403" type="line"/>
			<point x="970" y="297" type="line"/>
			<point x="693" y="297" type="line"/>
			<point x="628" y="297" type="line"/>
			<point x="525" y="287" type="line"/>
		</contour>
		<contour>
			<point x="867" y="9" type="line"/>
			<point x="867" y="502" type="line"/>
			<point x="1014" y="502" type="line"/>
			<point x="1014" y="9" type="line"/>
		</contour>
		<contour>
			<point x="366" y="500" type="line"/>
			<point x="366" y="607" type="line"/>
			<point x="1114" y="607" type="line"/>
			<point x="1114" y="500" type="line"/>
		</contour>
		<contour>
			<point x="30" y="188" type="curve" smooth="yes"/>
			<point x="30" y="328"/>
			<point x="94" y="375"/>
			<point x="216" y="375" type="curve" smooth="yes"/>
			<point x="263" y="375"/>
			<point x="334" y="369"/>
			<point x="371" y="358" type="curve"/>
			<point x="371" y="255" type="line"/>
			<point x="367" y="254" type="line"/>
			<point x="345" y="260"/>
			<point x="293" y="268"/>
			<point x="258" y="268" type="curve" smooth="yes"/>
			<point x="243" y="268" type="line"/>
			<point x="379" y="173" type="line" smooth="yes"/>
			<point x="423" y="142"/>
			<point x="470" y="121"/>
			<point x="541" y="121" type="curve" smooth="yes"/>
			<point x="605" y="121"/>
			<point x="626" y="135"/>
			<point x="626" y="209" type="curve" smooth="yes"/>
			<point x="626" y="269"/>
			<point x="607" y="287"/>
			<point x="525" y="287" type="curve"/>
			<point x="624" y="303" type="line"/>
			<point x="705" y="297" type="line"/>
			<point x="705" y="295" type="line"/>
			<point x="743" y="280"/>
			<point x="762" y="237"/>
			<point x="762" y="180" type="curve" smooth="yes"/>
			<point x="762" y="47"/>
			<point x="724" y="0"/>
			<point x="584" y="0" type="curve" smooth="yes"/>
			<point x="505" y="0"/>
			<point x="453" y="14"/>
			<point x="422" y="39" type="curve"/>
			<point x="421" y="39" type="line"/>
			<point x="385" y="14"/>
			<point x="335" y="0"/>
			<point x="264" y="0" type="curve" smooth="yes"/>
			<point x="99" y="0"/>
			<point x="30" y="49"/>
		</contour>
		<contour>
			<point x="162" y="190" type="curve" smooth="yes"/>
			<point x="162" y="126"/>
			<point x="196" y="109"/>
			<point x="270" y="109" type="curve" smooth="yes"/>
			<point x="295" y="109"/>
			<point x="324" y="113"/>
			<point x="338" y="120" type="curve"/>
			<point x="338" y="122" type="line"/>
			<point x="171" y="239" type="line"/>
			<point x="165" y="227"/>
			<point x="162" y="211"/>
		</contour>
	</outline>
</glyph>
<glyph name="dvB_J_YA" format="2">
	<advance width="1478"/>
	<outline>
		<contour>
			<point x="-60" y="500" type="line"/>
			<point x="-60" y="607" type="line"/>
			<point x="426" y="607" type="line"/>
			<point x="426" y="500" type="line"/>
		</contour>
		<contour>
			<point x="326" y="500" type="line"/>
			<point x="326" y="607" type="line"/>
			<point x="930" y="607" type="line"/>
			<point x="930" y="500" type="line"/>
		</contour>
		<contour>
			<point x="1270" y="9" type="line"/>
			<point x="1270" y="501" type="line"/>
			<point x="1418" y="501" type="line"/>
			<point x="1418" y="9" type="line"/>
		</contour>
		<contour>
			<point x="760" y="500" type="line"/>
			<point x="760" y="607" type="line"/>
			<point x="1518" y="607" type="line"/>
			<point x="1518" y="500" type="line"/>
		</contour>
		<contour>
			<point x="1121" y="520" type="line"/>
			<point x="1121" y="428" type="line" smooth="yes"/>
			<point x="1121" y="326"/>
			<point x="1078" y="277"/>
			<point x="957" y="270" type="curve"/>
			<point x="958" y="222"/>
			<point x="1004" y="200"/>
			<point x="1114" y="200" type="curve" smooth="yes"/>
			<point x="1202" y="200"/>
			<point x="1265" y="216"/>
			<point x="1319" y="257" type="curve"/>
			<point x="1350" y="146" type="line"/>
			<point x="1325" y="125"/>
			<point x="1303" y="110"/>
			<point x="1270" y="98" type="curve"/>
			<point x="1266" y="100" type="line"/>
			<point x="1219" y="84"/>
			<point x="1167" y="76"/>
			<point x="1100" y="76" type="curve" smooth="yes"/>
			<point x="919" y="76"/>
			<point x="823" y="157"/>
			<point x="823" y="318" type="curve" smooth="yes"/>
			<point x="823" y="373" type="line"/>
			<point x="871" y="373" type="line" smooth="yes"/>
			<point x="964" y="373"/>
			<point x="979" y="385"/>
			<point x="979" y="470" type="curve" smooth="yes"/>
			<point x="979" y="520" type="line"/>
		</contour>
		<contour>
			<point x="495" y="258" type="line"/>
			<point x="495" y="374" type="line"/>
			<point x="970" y="374" type="line"/>
			<point x="970" y="268" type="line"/>
			<point x="693" y="268" type="line"/>
			<point x="628" y="268" type="line"/>
			<point x="525" y="258" type="line"/>
		</contour>
		<contour>
			<point x="30" y="188" type="curve" smooth="yes"/>
			<point x="30" y="328"/>
			<point x="94" y="375"/>
			<point x="216" y="375" type="curve" smooth="yes"/>
			<point x="263" y="375"/>
			<point x="334" y="369"/>
			<point x="371" y="358" type="curve"/>
			<point x="371" y="255" type="line"/>
			<point x="367" y="254" type="line"/>
			<point x="345" y="260"/>
			<point x="293" y="268"/>
			<point x="258" y="268" type="curve" smooth="yes"/>
			<point x="243" y="268" type="line"/>
			<point x="379" y="173" type="line" smooth="yes"/>
			<point x="423" y="142"/>
			<point x="470" y="121"/>
			<point x="541" y="121" type="curve" smooth="yes"/>
			<point x="605" y="121"/>
			<point x="626" y="136"/>
			<point x="626" y="190" type="curve" smooth="yes"/>
			<point x="626" y="240"/>
			<point x="607" y="258"/>
			<point x="525" y="258" type="curve"/>
			<point x="624" y="274" type="line"/>
			<point x="705" y="268" type="line"/>
			<point x="705" y="266" type="line"/>
			<point x="743" y="251"/>
			<point x="762" y="208"/>
			<point x="762" y="161" type="curve" smooth="yes"/>
			<point x="762" y="50"/>
			<point x="724" y="0"/>
			<point x="584" y="0" type="curve" smooth="yes"/>
			<point x="505" y="0"/>
			<point x="453" y="14"/>
			<point x="422" y="39" type="curve"/>
			<point x="421" y="39" type="line"/>
			<point x="385" y="14"/>
			<point x="335" y="0"/>
			<point x="264" y="0" type="curve" smooth="yes"/>
			<point x="99" y="0"/>
			<point x="30" y="49"/>
		</contour>
		<contour>
			<point x="162" y="190" type="curve" smooth="yes"/>
			<point x="162" y="126"/>
			<point x="196" y="109"/>
			<point x="270" y="109" type="curve" smooth="yes"/>
			<point x="295" y="109"/>
			<point x="324" y="113"/>
			<point x="338" y="120" type="curve"/>
			<point x="338" y="122" type="line"/>
			<point x="171" y="239" type="line"/>
			<point x="165" y="227"/>
			<point x="162" y="211"/>
		</contour>
	</outline>
</glyph>
<glyph name="dvDD_DDHA" format="2">
	<advance width="546"/>
	<anchor x="217" y="-291" name="blwm.virama"/>
	<anchor x="494" y="607" name="abvm.bindu"/>
	<anchor x="287" y="-327" name="blwm.u"/>
	<anchor x="492" y="607" name="abvm.e"/>
	<outline>
		<contour>
			<point x="-20" y="500" type="line"/>
			<point x="-20" y="607" type="line"/>
			<point x="595" y="607" type="line"/>
			<point x="595" y="500" type="line"/>
		</contour>
		<contour>
			<point x="377" y="364" type="line"/>
			<point x="377" y="511" type="line"/>
			<point x="495" y="511" type="line"/>
			<point x="495" y="364" type="line"/>
		</contour>
		<contour>
			<point x="36" y="-49" type="curve" smooth="yes"/>
			<point x="36" y="37"/>
			<point x="69" y="82"/>
			<point x="108" y="92" type="curve"/>
			<point x="108" y="94" type="line"/>
			<point x="90" y="94"/>
			<point x="55" y="98"/>
			<point x="41" y="102" type="curve"/>
			<point x="41" y="193" type="line"/>
			<point x="44" y="194" type="line"/>
			<point x="86" y="177"/>
			<point x="165" y="168"/>
			<point x="249" y="168" type="curve" smooth="yes"/>
			<point x="354" y="168"/>
			<point x="374" y="175"/>
			<point x="374" y="195" type="curve" smooth="yes"/>
			<point x="374" y="216"/>
			<point x="365" y="222"/>
			<point x="282" y="222" type="curve" smooth="yes"/>
			<point x="226" y="222" type="line" smooth="yes"/>
			<point x="109" y="222"/>
			<point x="58" y="247"/>
			<point x="58" y="341" type="curve" smooth="yes"/>
			<point x="58" y="434"/>
			<point x="108" y="457"/>
			<point x="225" y="457" type="curve" smooth="yes"/>
			<point x="495" y="457" type="line"/>
			<point x="495" y="360" type="line"/>
			<point x="234" y="360" type="line" smooth="yes"/>
			<point x="200" y="360"/>
			<point x="190" y="354"/>
			<point x="190" y="336" type="curve" smooth="yes"/>
			<point x="190" y="317"/>
			<point x="200" y="312"/>
			<point x="234" y="312" type="curve" smooth="yes"/>
			<point x="300" y="312" type="line" smooth="yes"/>
			<point x="468" y="312"/>
			<point x="506" y="291"/>
			<point x="506" y="199" type="curve" smooth="yes"/>
			<point x="506" y="87"/>
			<point x="452" y="65"/>
			<point x="268" y="65" type="curve" smooth="yes"/>
			<point x="196" y="65"/>
			<point x="168" y="37"/>
			<point x="168" y="-35" type="curve" smooth="yes"/>
			<point x="168" y="-117"/>
			<point x="203" y="-137"/>
			<point x="279" y="-137" type="curve" smooth="yes"/>
			<point x="382" y="-137"/>
			<point x="396" y="-132"/>
			<point x="396" y="-107" type="curve" smooth="yes"/>
			<point x="396" y="-86"/>
			<point x="390" y="-76"/>
			<point x="331" y="-76" type="curve" smooth="yes"/>
			<point x="301" y="-76"/>
			<point x="272" y="-79"/>
			<point x="243" y="-85" type="curve"/>
			<point x="240" y="-83" type="line"/>
			<point x="240" y="2" type="line"/>
			<point x="276" y="11"/>
			<point x="322" y="17"/>
			<point x="365" y="17" type="curve" smooth="yes"/>
			<point x="489" y="17"/>
			<point x="522" y="-9"/>
			<point x="522" y="-110" type="curve" smooth="yes"/>
			<point x="522" y="-202"/>
			<point x="475" y="-237"/>
			<point x="272" y="-237" type="curve" smooth="yes"/>
			<point x="103" y="-237"/>
			<point x="36" y="-191"/>
		</contour>
	</outline>
</glyph>
<glyph name="dvDH_MA" format="2">
	<advance width="1025"/>
	<outline>
		<contour>
			<point x="-65" y="500" type="line"/>
			<point x="-65" y="607" type="line"/>
			<point x="274" y="607" type="line"/>
			<point x="274" y="500" type="line"/>
		</contour>
		<contour>
			<point x="39" y="436" type="curve" smooth="yes"/>
			<point x="39" y="465"/>
			<point x="50" y="484"/>
			<point x="69" y="497" type="curve"/>
			<point x="69" y="501" type="line"/>
			<point x="260" y="606" type="line"/>
			<point x="260" y="500" type="line"/>
			<point x="197" y="500"/>
			<point x="185" y="483"/>
			<point x="185" y="447" type="curve" smooth="yes"/>
			<point x="185" y="411"/>
			<point x="207" y="395"/>
			<point x="290" y="395" type="curve" smooth="yes"/>
			<point x="319" y="395" type="line"/>
			<point x="319" y="280" type="line"/>
			<point x="290" y="280" type="line" smooth="yes"/>
			<point x="215" y="280"/>
			<point x="193" y="268"/>
			<point x="193" y="228" type="curve" smooth="yes"/>
			<point x="193" y="190"/>
			<point x="216" y="177"/>
			<point x="297" y="177" type="curve" smooth="yes"/>
			<point x="376" y="177"/>
			<point x="435" y="198"/>
			<point x="500" y="231" type="curve"/>
			<point x="527" y="113" type="line"/>
			<point x="457" y="72"/>
			<point x="381" y="54"/>
			<point x="256" y="54" type="curve" smooth="yes"/>
			<point x="109" y="54"/>
			<point x="48" y="105"/>
			<point x="48" y="216" type="curve" smooth="yes"/>
			<point x="48" y="281"/>
			<point x="89" y="330"/>
			<point x="163" y="334" type="curve"/>
			<point x="163" y="338" type="line"/>
			<point x="85" y="341"/>
			<point x="39" y="378"/>
		</contour>
		<contour>
			<point x="816" y="9" type="line"/>
			<point x="816" y="501" type="line"/>
			<point x="965" y="501" type="line"/>
			<point x="965" y="9" type="line"/>
		</contour>
		<contour>
			<point x="379" y="500" type="line"/>
			<point x="379" y="607" type="line"/>
			<point x="1065" y="607" type="line"/>
			<point x="1065" y="500" type="line"/>
		</contour>
		<contour>
			<point x="561" y="174" type="line"/>
			<point x="561" y="286" type="line"/>
			<point x="934" y="287" type="line"/>
			<point x="934" y="175" type="line"/>
		</contour>
		<contour>
			<point x="511" y="280" type="curve"/>
			<point x="511" y="500" type="line"/>
			<point x="659" y="500" type="line"/>
			<point x="659" y="196" type="line" smooth="yes"/>
			<point x="659" y="109"/>
			<point x="641" y="94"/>
			<point x="549" y="94" type="curve" smooth="yes"/>
			<point x="452" y="94"/>
			<point x="430" y="113"/>
			<point x="430" y="187" type="curve" smooth="yes"/>
			<point x="430" y="262"/>
			<point x="451" y="280"/>
		</contour>
	</outline>
</glyph>
<glyph name="dvDH_VA" format="2">
	<advance width="1015"/>
	<outline>
		<contour>
			<point x="-65" y="500" type="line"/>
			<point x="-65" y="607" type="line"/>
			<point x="274" y="607" type="line"/>
			<point x="274" y="500" type="line"/>
		</contour>
		<contour>
			<point x="39" y="436" type="curve" smooth="yes"/>
			<point x="39" y="465"/>
			<point x="50" y="484"/>
			<point x="69" y="497" type="curve"/>
			<point x="69" y="501" type="line"/>
			<point x="260" y="606" type="line"/>
			<point x="260" y="500" type="line"/>
			<point x="197" y="500"/>
			<point x="185" y="483"/>
			<point x="185" y="447" type="curve" smooth="yes"/>
			<point x="185" y="411"/>
			<point x="207" y="395"/>
			<point x="290" y="395" type="curve" smooth="yes"/>
			<point x="319" y="395" type="line"/>
			<point x="319" y="280" type="line"/>
			<point x="290" y="280" type="line" smooth="yes"/>
			<point x="215" y="280"/>
			<point x="193" y="268"/>
			<point x="193" y="228" type="curve" smooth="yes"/>
			<point x="193" y="190"/>
			<point x="216" y="177"/>
			<point x="297" y="177" type="curve" smooth="yes"/>
			<point x="376" y="177"/>
			<point x="435" y="187"/>
			<point x="500" y="226" type="curve"/>
			<point x="527" y="103" type="line"/>
			<point x="461" y="70"/>
			<point x="401" y="54"/>
			<point x="286" y="54" type="curve" smooth="yes"/>
			<point x="109" y="54"/>
			<point x="48" y="105"/>
			<point x="48" y="216" type="curve" smooth="yes"/>
			<point x="48" y="281"/>
			<point x="89" y="330"/>
			<point x="163" y="334" type="curve"/>
			<point x="163" y="338" type="line"/>
			<point x="85" y="341"/>
			<point x="39" y="378"/>
		</contour>
		<contour>
			<point x="617" y="439" type="curve" smooth="yes"/>
			<point x="667" y="439"/>
			<point x="710" y="433"/>
			<point x="749" y="423" type="curve"/>
			<point x="749" y="308" type="line"/>
			<point x="745" y="307" type="line"/>
			<point x="722" y="312"/>
			<point x="693" y="315"/>
			<point x="662" y="315" type="curve" smooth="yes"/>
			<point x="599" y="315"/>
			<point x="579" y="303"/>
			<point x="579" y="246" type="curve" smooth="yes"/>
			<point x="579" y="188"/>
			<point x="609" y="176"/>
			<point x="690" y="176" type="curve" smooth="yes"/>
			<point x="744" y="176"/>
			<point x="781" y="184"/>
			<point x="815" y="203" type="curve"/>
			<point x="842" y="96" type="line"/>
			<point x="808" y="83" type="line"/>
			<point x="804" y="85" type="line"/>
			<point x="767" y="67"/>
			<point x="706" y="56"/>
			<point x="651" y="56" type="curve" smooth="yes"/>
			<point x="489" y="56"/>
			<point x="429" y="111"/>
			<point x="429" y="251" type="curve" smooth="yes"/>
			<point x="429" y="385"/>
			<point x="489" y="439"/>
		</contour>
		<contour>
			<point x="807" y="9" type="line"/>
			<point x="807" y="501" type="line"/>
			<point x="955" y="501" type="line"/>
			<point x="955" y="9" type="line"/>
		</contour>
		<contour>
			<point x="379" y="500" type="line"/>
			<point x="379" y="607" type="line"/>
			<point x="1055" y="607" type="line"/>
			<point x="1055" y="500" type="line"/>
		</contour>
	</outline>
</glyph>
<glyph name="dvD_GHA" format="2">
	<advance width="822"/>
	<anchor x="690" y="-81" name="blwm.u"/>
	<outline>
		<contour>
			<point x="34" y="277" type="curve" smooth="yes"/>
			<point x="34" y="351"/>
			<point x="76" y="396"/>
			<point x="229" y="396" type="curve" smooth="yes"/>
			<point x="284" y="396"/>
			<point x="336" y="393"/>
			<point x="372" y="388" type="curve"/>
			<point x="325" y="293" type="line"/>
			<point x="302" y="295"/>
			<point x="276" y="295"/>
			<point x="239" y="295" type="curve" smooth="yes"/>
			<point x="175" y="295"/>
			<point x="161" y="287"/>
			<point x="161" y="262" type="curve" smooth="yes"/>
			<point x="161" y="237"/>
			<point x="179" y="230"/>
			<point x="233" y="230" type="curve" smooth="yes"/>
			<point x="248" y="230" type="line"/>
			<point x="248" y="126" type="line"/>
			<point x="235" y="126" type="line" smooth="yes"/>
			<point x="182" y="126"/>
			<point x="168" y="118"/>
			<point x="168" y="90" type="curve" smooth="yes"/>
			<point x="168" y="56"/>
			<point x="186" y="52"/>
			<point x="271" y="52" type="curve" smooth="yes"/>
			<point x="349" y="52"/>
			<point x="374" y="61"/>
			<point x="374" y="89" type="curve"/>
			<point x="374" y="120" type="line"/>
			<point x="484" y="69" type="line"/>
			<point x="484" y="-17"/>
			<point x="420" y="-54"/>
			<point x="263" y="-54" type="curve" smooth="yes"/>
			<point x="125" y="-54"/>
			<point x="42" y="-20"/>
			<point x="42" y="77" type="curve" smooth="yes"/>
			<point x="42" y="135"/>
			<point x="68" y="166"/>
			<point x="114" y="175" type="curve"/>
			<point x="114" y="179" type="line"/>
			<point x="66" y="189"/>
			<point x="34" y="219"/>
		</contour>
		<contour>
			<point x="629" y="321" type="line"/>
			<point x="629" y="501" type="line"/>
			<point x="761" y="501" type="line"/>
			<point x="761" y="321" type="line"/>
		</contour>
		<contour>
			<point x="-40" y="500" type="line"/>
			<point x="-40" y="607" type="line"/>
			<point x="861" y="607" type="line"/>
			<point x="861" y="500" type="line"/>
		</contour>
		<contour>
			<point x="316" y="253" type="curve" smooth="yes"/>
			<point x="316" y="388"/>
			<point x="377" y="435"/>
			<point x="536" y="435" type="curve" smooth="yes"/>
			<point x="623" y="435"/>
			<point x="731" y="434"/>
			<point x="761" y="431" type="curve"/>
			<point x="761" y="321" type="line"/>
			<point x="553" y="321" type="line" smooth="yes"/>
			<point x="471" y="321"/>
			<point x="452" y="306"/>
			<point x="452" y="247" type="curve" smooth="yes"/>
			<point x="452" y="189"/>
			<point x="472" y="179"/>
			<point x="564" y="179" type="curve" smooth="yes"/>
			<point x="649" y="179"/>
			<point x="670" y="191"/>
			<point x="670" y="218" type="curve" smooth="yes"/>
			<point x="670" y="250" type="line"/>
			<point x="786" y="250" type="line"/>
			<point x="786" y="9" type="line"/>
			<point x="642" y="9" type="line"/>
			<point x="642" y="49"/>
			<point x="645" y="68"/>
			<point x="652" y="87" type="curve"/>
			<point x="649" y="89" type="line"/>
			<point x="622" y="74"/>
			<point x="575" y="65"/>
			<point x="516" y="65" type="curve" smooth="yes"/>
			<point x="383" y="65"/>
			<point x="316" y="116"/>
		</contour>
	</outline>
</glyph>
<glyph name="dvG_DH_VA" format="2">
	<advance width="1323"/>
	<outline>
		<contour>
			<point x="243" y="500" type="line"/>
			<point x="243" y="607" type="line"/>
			<point x="582" y="607" type="line"/>
			<point x="582" y="500" type="line"/>
		</contour>
		<contour>
			<point x="347" y="436" type="curve" smooth="yes"/>
			<point x="347" y="465"/>
			<point x="358" y="484"/>
			<point x="377" y="497" type="curve"/>
			<point x="377" y="501" type="line"/>
			<point x="568" y="606" type="line"/>
			<point x="568" y="500" type="line"/>
			<point x="505" y="500"/>
			<point x="493" y="483"/>
			<point x="493" y="447" type="curve" smooth="yes"/>
			<point x="493" y="411"/>
			<point x="515" y="395"/>
			<point x="598" y="395" type="curve" smooth="yes"/>
			<point x="617" y="395" type="line"/>
			<point x="617" y="280" type="line"/>
			<point x="598" y="280" type="line" smooth="yes"/>
			<point x="523" y="280"/>
			<point x="501" y="268"/>
			<point x="501" y="228" type="curve" smooth="yes"/>
			<point x="501" y="190"/>
			<point x="524" y="177"/>
			<point x="605" y="177" type="curve" smooth="yes"/>
			<point x="684" y="177"/>
			<point x="743" y="187"/>
			<point x="808" y="226" type="curve"/>
			<point x="835" y="103" type="line"/>
			<point x="769" y="70"/>
			<point x="709" y="54"/>
			<point x="594" y="54" type="curve" smooth="yes"/>
			<point x="417" y="54"/>
			<point x="356" y="105"/>
			<point x="356" y="216" type="curve" smooth="yes"/>
			<point x="356" y="281"/>
			<point x="397" y="330"/>
			<point x="471" y="334" type="curve"/>
			<point x="471" y="338" type="line"/>
			<point x="393" y="341"/>
			<point x="347" y="378"/>
		</contour>
		<contour>
			<point x="925" y="439" type="curve" smooth="yes"/>
			<point x="975" y="439"/>
			<point x="1018" y="433"/>
			<point x="1057" y="423" type="curve"/>
			<point x="1057" y="308" type="line"/>
			<point x="1053" y="307" type="line"/>
			<point x="1030" y="312"/>
			<point x="1001" y="315"/>
			<point x="970" y="315" type="curve" smooth="yes"/>
			<point x="907" y="315"/>
			<point x="887" y="303"/>
			<point x="887" y="246" type="curve" smooth="yes"/>
			<point x="887" y="188"/>
			<point x="917" y="176"/>
			<point x="998" y="176" type="curve" smooth="yes"/>
			<point x="1052" y="176"/>
			<point x="1089" y="184"/>
			<point x="1123" y="203" type="curve"/>
			<point x="1150" y="96" type="line"/>
			<point x="1116" y="83" type="line"/>
			<point x="1112" y="85" type="line"/>
			<point x="1075" y="67"/>
			<point x="1014" y="56"/>
			<point x="959" y="56" type="curve" smooth="yes"/>
			<point x="797" y="56"/>
			<point x="737" y="111"/>
			<point x="737" y="251" type="curve" smooth="yes"/>
			<point x="737" y="385"/>
			<point x="797" y="439"/>
		</contour>
		<contour>
			<point x="1115" y="9" type="line"/>
			<point x="1115" y="501" type="line"/>
			<point x="1263" y="501" type="line"/>
			<point x="1263" y="9" type="line"/>
		</contour>
		<contour>
			<point x="687" y="500" type="line"/>
			<point x="687" y="607" type="line"/>
			<point x="1363" y="607" type="line"/>
			<point x="1363" y="500" type="line"/>
		</contour>
		<component base="dvG"/>
	</outline>
</glyph>
<glyph name="dvGxA" format="2">
	<advance width="584"/>
	<anchor x="471" y="607" name="abvm"/>
	<outline>
		<contour>
			<point x="194" y="63" type="curve"/>
			<point x="196" y="41"/>
			<point x="197" y="26"/>
			<point x="197" y="10" type="curve" smooth="yes"/>
			<point x="197" y="-6"/>
			<point x="196" y="-22"/>
			<point x="194" y="-43" type="curve"/>
			<point x="168" y="-48"/>
			<point x="143" y="-51"/>
			<point x="118" y="-51" type="curve" smooth="yes"/>
			<point x="94" y="-51"/>
			<point x="70" y="-48"/>
			<point x="45" y="-43" type="curve"/>
			<point x="42" y="-23"/>
			<point x="41" y="-7"/>
			<point x="41" y="9" type="curve" smooth="yes"/>
			<point x="41" y="24"/>
			<point x="42" y="41"/>
			<point x="45" y="63" type="curve"/>
			<point x="70" y="68"/>
			<point x="95" y="70"/>
			<point x="120" y="70" type="curve" smooth="yes"/>
			<point x="144" y="70"/>
			<point x="169" y="68"/>
		</contour>
		<contour>
			<point x="375" y="9" type="line"/>
			<point x="375" y="501" type="line"/>
			<point x="523" y="501" type="line"/>
			<point x="523" y="9" type="line"/>
		</contour>
		<contour>
			<point x="-50" y="500" type="line"/>
			<point x="-50" y="607" type="line"/>
			<point x="624" y="607" type="line"/>
			<point x="624" y="500" type="line"/>
		</contour>
		<contour>
			<point x="246" y="502" type="line"/>
			<point x="246" y="248" type="line" smooth="yes"/>
			<point x="246" y="179"/>
			<point x="209" y="127"/>
			<point x="129" y="127" type="curve" smooth="yes"/>
			<point x="85" y="127"/>
			<point x="49" y="135"/>
			<point x="20" y="147" type="curve"/>
			<point x="20" y="259" type="line"/>
			<point x="22" y="259" type="line"/>
			<point x="33" y="256"/>
			<point x="47" y="253"/>
			<point x="60" y="253" type="curve" smooth="yes"/>
			<point x="90" y="253"/>
			<point x="104" y="264"/>
			<point x="104" y="303" type="curve" smooth="yes"/>
			<point x="104" y="503" type="line"/>
		</contour>
	</outline>
</glyph>
<glyph name="dvJH_RA" format="2">
	<advance width="919"/>
	<outline>
		<contour>
			<point x="438" y="-42" type="line"/>
			<point x="438" y="-38" type="line"/>
			<point x="495" y="30"/>
			<point x="543" y="83"/>
			<point x="599" y="131" type="curve"/>
			<point x="599" y="134" type="line"/>
			<point x="608" y="155" type="line"/>
			<point x="732" y="160" type="line"/>
			<point x="613" y="-42" type="line"/>
		</contour>
		<contour>
			<point x="451" y="135" type="line"/>
			<point x="451" y="235" type="line"/>
			<point x="758" y="235" type="line"/>
			<point x="758" y="135" type="line"/>
		</contour>
		<contour>
			<point x="474" y="340" type="line"/>
			<point x="474" y="500" type="line"/>
			<point x="592" y="500" type="line"/>
			<point x="592" y="340" type="line"/>
		</contour>
		<contour>
			<point x="711" y="9" type="line"/>
			<point x="711" y="501" type="line"/>
			<point x="859" y="501" type="line"/>
			<point x="859" y="9" type="line"/>
		</contour>
		<contour>
			<point x="-40" y="500" type="line"/>
			<point x="-40" y="607" type="line"/>
			<point x="959" y="607" type="line"/>
			<point x="959" y="500" type="line"/>
		</contour>
		<contour>
			<point x="214" y="447" type="curve" smooth="yes"/>
			<point x="564" y="447" type="line"/>
			<point x="564" y="340" type="line"/>
			<point x="218" y="340" type="line" smooth="yes"/>
			<point x="195" y="340"/>
			<point x="180" y="336"/>
			<point x="180" y="311" type="curve" smooth="yes"/>
			<point x="180" y="286"/>
			<point x="195" y="282"/>
			<point x="218" y="282" type="curve" smooth="yes"/>
			<point x="290" y="282" type="line" smooth="yes"/>
			<point x="442" y="282"/>
			<point x="489" y="256"/>
			<point x="489" y="143" type="curve" smooth="yes"/>
			<point x="489" y="36"/>
			<point x="435" y="0"/>
			<point x="297" y="0" type="curve" smooth="yes"/>
			<point x="238" y="0"/>
			<point x="182" y="7"/>
			<point x="154" y="19" type="curve"/>
			<point x="151" y="16" type="line"/>
			<point x="161" y="-12"/>
			<point x="163" y="-36"/>
			<point x="163" y="-74" type="curve"/>
			<point x="38" y="-74" type="line"/>
			<point x="38" y="157" type="line"/>
			<point x="141" y="157" type="line"/>
			<point x="141" y="149" type="line" smooth="yes"/>
			<point x="141" y="120"/>
			<point x="160" y="113"/>
			<point x="255" y="113" type="curve" smooth="yes"/>
			<point x="334" y="113"/>
			<point x="349" y="120"/>
			<point x="349" y="149" type="curve" smooth="yes"/>
			<point x="349" y="178"/>
			<point x="336" y="185"/>
			<point x="262" y="185" type="curve" smooth="yes"/>
			<point x="202" y="185" type="line" smooth="yes"/>
			<point x="85" y="185"/>
			<point x="40" y="222"/>
			<point x="40" y="318" type="curve" smooth="yes"/>
			<point x="40" y="413"/>
			<point x="92" y="447"/>
		</contour>
	</outline>
</glyph>
<glyph name="dvJ_J_YA" format="2">
	<advance width="1527"/>
	<outline>
		<contour>
			<point x="375" y="500" type="line"/>
			<point x="375" y="607" type="line"/>
			<point x="979" y="607" type="line"/>
			<point x="979" y="500" type="line"/>
		</contour>
		<contour>
			<point x="603" y="0" type="curve" smooth="yes"/>
			<point x="536" y="0"/>
			<point x="483" y="8"/>
			<point x="441" y="20" type="curve"/>
			<point x="441" y="134" type="line"/>
			<point x="443" y="135" type="line"/>
			<point x="475" y="127"/>
			<point x="513" y="121"/>
			<point x="560" y="121" type="curve" smooth="yes"/>
			<point x="624" y="121"/>
			<point x="645" y="135"/>
			<point x="645" y="199" type="curve" smooth="yes"/>
			<point x="645" y="249"/>
			<point x="626" y="267"/>
			<point x="544" y="267" type="curve"/>
			<point x="643" y="303" type="line"/>
			<point x="724" y="297" type="line"/>
			<point x="724" y="295" type="line"/>
			<point x="762" y="280"/>
			<point x="781" y="237"/>
			<point x="781" y="180" type="curve" smooth="yes"/>
			<point x="781" y="47"/>
			<point x="743" y="0"/>
		</contour>
		<contour>
			<point x="514" y="267" type="line"/>
			<point x="514" y="374" type="line"/>
			<point x="989" y="374" type="line"/>
			<point x="989" y="268" type="line"/>
			<point x="712" y="268" type="line"/>
			<point x="647" y="287" type="line"/>
			<point x="544" y="267" type="line"/>
		</contour>
		<contour>
			<point x="1319" y="9" type="line"/>
			<point x="1319" y="501" type="line"/>
			<point x="1467" y="501" type="line"/>
			<point x="1467" y="9" type="line"/>
		</contour>
		<contour>
			<point x="809" y="500" type="line"/>
			<point x="809" y="607" type="line"/>
			<point x="1567" y="607" type="line"/>
			<point x="1567" y="500" type="line"/>
		</contour>
		<contour>
			<point x="1170" y="520" type="line"/>
			<point x="1170" y="428" type="line" smooth="yes"/>
			<point x="1170" y="326"/>
			<point x="1127" y="277"/>
			<point x="1006" y="270" type="curve"/>
			<point x="1007" y="222"/>
			<point x="1053" y="200"/>
			<point x="1163" y="200" type="curve" smooth="yes"/>
			<point x="1251" y="200"/>
			<point x="1314" y="216"/>
			<point x="1368" y="257" type="curve"/>
			<point x="1399" y="146" type="line"/>
			<point x="1374" y="125"/>
			<point x="1352" y="110"/>
			<point x="1319" y="98" type="curve"/>
			<point x="1315" y="100" type="line"/>
			<point x="1268" y="84"/>
			<point x="1216" y="76"/>
			<point x="1149" y="76" type="curve" smooth="yes"/>
			<point x="968" y="76"/>
			<point x="872" y="157"/>
			<point x="872" y="318" type="curve" smooth="yes"/>
			<point x="872" y="373" type="line"/>
			<point x="920" y="373" type="line" smooth="yes"/>
			<point x="1013" y="373"/>
			<point x="1028" y="385"/>
			<point x="1028" y="470" type="curve" smooth="yes"/>
			<point x="1028" y="520" type="line"/>
		</contour>
		<contour>
			<point x="-35" y="500" type="line"/>
			<point x="-35" y="607" type="line"/>
			<point x="550" y="607" type="line"/>
			<point x="550" y="500" type="line"/>
		</contour>
		<contour>
			<point x="183" y="0" type="curve" smooth="yes"/>
			<point x="116" y="0"/>
			<point x="63" y="8"/>
			<point x="21" y="20" type="curve"/>
			<point x="21" y="134" type="line"/>
			<point x="23" y="135" type="line"/>
			<point x="55" y="127"/>
			<point x="93" y="121"/>
			<point x="140" y="121" type="curve" smooth="yes"/>
			<point x="204" y="121"/>
			<point x="225" y="135"/>
			<point x="225" y="199" type="curve" smooth="yes"/>
			<point x="225" y="249"/>
			<point x="206" y="267"/>
			<point x="124" y="267" type="curve"/>
			<point x="223" y="303" type="line"/>
			<point x="304" y="297" type="line"/>
			<point x="304" y="295" type="line"/>
			<point x="342" y="280"/>
			<point x="361" y="237"/>
			<point x="361" y="180" type="curve" smooth="yes"/>
			<point x="361" y="47"/>
			<point x="323" y="0"/>
		</contour>
		<contour>
			<point x="94" y="267" type="line"/>
			<point x="94" y="374" type="line"/>
			<point x="569" y="374" type="line"/>
			<point x="569" y="267" type="line"/>
			<point x="292" y="267" type="line"/>
			<point x="227" y="287" type="line"/>
			<point x="124" y="267" type="line"/>
		</contour>
	</outline>
</glyph>
<glyph name="dvKH_R" format="2">
	<advance width="697"/>
	<outline>
		<contour>
			<point x="458" y="-59" type="curve"/>
			<point x="458" y="-63" type="line"/>
			<point x="624" y="-63" type="line"/>
			<point x="763" y="139" type="line"/>
			<point x="648" y="139" type="line"/>
			<point x="639" y="117" type="line"/>
			<point x="639" y="114" type="line"/>
			<point x="580" y="72"/>
			<point x="516" y="10"/>
		</contour>
		<contour>
			<point x="-54" y="500" type="line"/>
			<point x="763" y="500" type="line"/>
			<point x="763" y="607" type="line"/>
			<point x="-54" y="607" type="line"/>
		</contour>
		<contour>
			<point x="763" y="237" type="line"/>
			<point x="761" y="239" type="line"/>
			<point x="729" y="225"/>
			<point x="680" y="216"/>
			<point x="633" y="216" type="curve" smooth="yes"/>
			<point x="565" y="216"/>
			<point x="526" y="224"/>
			<point x="526" y="265" type="curve" smooth="yes"/>
			<point x="526" y="306"/>
			<point x="539" y="320"/>
			<point x="597" y="320" type="curve" smooth="yes"/>
			<point x="617" y="320"/>
			<point x="637" y="318"/>
			<point x="655" y="313" type="curve"/>
			<point x="657" y="314" type="line"/>
			<point x="656" y="420" type="line"/>
			<point x="630" y="428"/>
			<point x="601" y="432"/>
			<point x="560" y="432" type="curve" smooth="yes"/>
			<point x="455" y="432"/>
			<point x="405" y="401"/>
			<point x="405" y="268" type="curve"/>
			<point x="405" y="202" type="line"/>
			<point x="404" y="147"/>
			<point x="385" y="129"/>
			<point x="292" y="129" type="curve" smooth="yes"/>
			<point x="192" y="129"/>
			<point x="177" y="143"/>
			<point x="177" y="202" type="curve" smooth="yes"/>
			<point x="177" y="241" type="line"/>
			<point x="181" y="241" type="line" smooth="yes"/>
			<point x="296" y="241"/>
			<point x="351" y="294"/>
			<point x="351" y="407" type="curve" smooth="yes"/>
			<point x="351" y="556" type="line"/>
			<point x="209" y="556" type="line"/>
			<point x="209" y="433" type="line" smooth="yes"/>
			<point x="209" y="365"/>
			<point x="192" y="351"/>
			<point x="86" y="351" type="curve" smooth="yes"/>
			<point x="38" y="351" type="line"/>
			<point x="38" y="201" type="line" smooth="yes"/>
			<point x="38" y="48"/>
			<point x="76" y="6"/>
			<point x="296" y="6" type="curve" smooth="yes"/>
			<point x="466" y="6"/>
			<point x="504" y="63"/>
			<point x="502" y="138" type="curve"/>
			<point x="504" y="139" type="line"/>
			<point x="533" y="119"/>
			<point x="591" y="115"/>
			<point x="632" y="115" type="curve" smooth="yes"/>
			<point x="663" y="115"/>
			<point x="711" y="121"/>
			<point x="732" y="130" type="curve"/>
			<point x="734" y="129" type="line"/>
			<point x="763" y="139" type="line"/>
		</contour>
	</outline>
</glyph>
<glyph name="dvK_DA" format="2">
	<advance width="1256"/>
	<outline>
		<contour>
			<point x="193" y="436" type="curve" smooth="yes"/>
			<point x="240" y="436"/>
			<point x="291" y="430"/>
			<point x="328" y="419" type="curve"/>
			<point x="326" y="305" type="line"/>
			<point x="322" y="304" type="line"/>
			<point x="299" y="310"/>
			<point x="272" y="315"/>
			<point x="236" y="315" type="curve" smooth="yes"/>
			<point x="174" y="315"/>
			<point x="160" y="298"/>
			<point x="160" y="248" type="curve" smooth="yes"/>
			<point x="160" y="198"/>
			<point x="174" y="181"/>
			<point x="263" y="181" type="curve" smooth="yes"/>
			<point x="317" y="181"/>
			<point x="361" y="190"/>
			<point x="398" y="210" type="curve"/>
			<point x="386" y="87" type="line"/>
			<point x="384" y="87" type="line"/>
			<point x="354" y="72"/>
			<point x="298" y="62"/>
			<point x="241" y="62" type="curve" smooth="yes"/>
			<point x="76" y="62"/>
			<point x="25" y="108"/>
			<point x="25" y="250" type="curve" smooth="yes"/>
			<point x="25" y="390"/>
			<point x="71" y="436"/>
		</contour>
		<contour>
			<point x="386" y="9" type="line"/>
			<point x="386" y="501" type="line"/>
			<point x="534" y="501" type="line"/>
			<point x="534" y="9" type="line"/>
		</contour>
		<contour>
			<point x="-25" y="500" type="line"/>
			<point x="-25" y="607" type="line"/>
			<point x="863" y="607" type="line"/>
			<point x="863" y="500" type="line"/>
		</contour>
		<contour>
			<point x="865" y="331" type="curve"/>
			<point x="776" y="240" type="line"/>
			<point x="767" y="266"/>
			<point x="738" y="275"/>
			<point x="657" y="275" type="curve" smooth="yes"/>
			<point x="603" y="275"/>
			<point x="559" y="266"/>
			<point x="522" y="246" type="curve"/>
			<point x="534" y="379" type="line"/>
			<point x="536" y="379" type="line"/>
			<point x="566" y="394"/>
			<point x="622" y="404"/>
			<point x="679" y="404" type="curve" smooth="yes"/>
			<point x="781" y="404"/>
			<point x="838" y="384"/>
		</contour>
		<contour>
			<point x="1064" y="321" type="line"/>
			<point x="1064" y="501" type="line"/>
			<point x="1196" y="501" type="line"/>
			<point x="1196" y="321" type="line"/>
		</contour>
		<contour>
			<point x="645" y="500" type="line"/>
			<point x="645" y="607" type="line"/>
			<point x="1296" y="607" type="line"/>
			<point x="1296" y="500" type="line"/>
		</contour>
		<contour>
			<point x="731" y="253" type="curve" smooth="yes"/>
			<point x="731" y="388"/>
			<point x="792" y="435"/>
			<point x="951" y="435" type="curve" smooth="yes"/>
			<point x="1038" y="435"/>
			<point x="1146" y="434"/>
			<point x="1176" y="431" type="curve"/>
			<point x="1176" y="321" type="line"/>
			<point x="968" y="321" type="line" smooth="yes"/>
			<point x="886" y="321"/>
			<point x="867" y="306"/>
			<point x="867" y="247" type="curve" smooth="yes"/>
			<point x="867" y="189"/>
			<point x="887" y="179"/>
			<point x="979" y="179" type="curve" smooth="yes"/>
			<point x="1064" y="179"/>
			<point x="1085" y="191"/>
			<point x="1085" y="218" type="curve" smooth="yes"/>
			<point x="1085" y="250" type="line"/>
			<point x="1201" y="250" type="line"/>
			<point x="1201" y="9" type="line"/>
			<point x="1057" y="9" type="line"/>
			<point x="1057" y="49"/>
			<point x="1060" y="68"/>
			<point x="1067" y="87" type="curve"/>
			<point x="1064" y="89" type="line"/>
			<point x="1037" y="74"/>
			<point x="990" y="65"/>
			<point x="931" y="65" type="curve" smooth="yes"/>
			<point x="798" y="65"/>
			<point x="731" y="116"/>
		</contour>
		<component base="dvDA" xOffset="705"/>
	</outline>
</glyph>
<glyph name="dvK_SA" format="2">
	<advance width="1382"/>
	<outline>
		<contour>
			<point x="193" y="436" type="curve" smooth="yes"/>
			<point x="240" y="436"/>
			<point x="291" y="430"/>
			<point x="328" y="419" type="curve"/>
			<point x="326" y="305" type="line"/>
			<point x="322" y="304" type="line"/>
			<point x="299" y="310"/>
			<point x="272" y="315"/>
			<point x="236" y="315" type="curve" smooth="yes"/>
			<point x="174" y="315"/>
			<point x="160" y="298"/>
			<point x="160" y="248" type="curve" smooth="yes"/>
			<point x="160" y="198"/>
			<point x="174" y="181"/>
			<point x="263" y="181" type="curve" smooth="yes"/>
			<point x="317" y="181"/>
			<point x="361" y="190"/>
			<point x="398" y="210" type="curve"/>
			<point x="386" y="87" type="line"/>
			<point x="384" y="87" type="line"/>
			<point x="354" y="72"/>
			<point x="298" y="62"/>
			<point x="241" y="62" type="curve" smooth="yes"/>
			<point x="76" y="62"/>
			<point x="25" y="108"/>
			<point x="25" y="250" type="curve" smooth="yes"/>
			<point x="25" y="390"/>
			<point x="71" y="436"/>
		</contour>
		<contour>
			<point x="386" y="9" type="line"/>
			<point x="386" y="501" type="line"/>
			<point x="534" y="501" type="line"/>
			<point x="534" y="9" type="line"/>
		</contour>
		<contour>
			<point x="-25" y="500" type="line"/>
			<point x="-25" y="607" type="line"/>
			<point x="863" y="607" type="line"/>
			<point x="863" y="500" type="line"/>
		</contour>
		<contour>
			<point x="781" y="230" type="curve"/>
			<point x="729" y="191" type="line"/>
			<point x="729" y="307" type="line"/>
			<point x="781" y="307" type="line"/>
			<point x="849" y="307"/>
			<point x="863" y="335"/>
			<point x="863" y="382" type="curve" smooth="yes"/>
			<point x="863" y="573" type="line"/>
			<point x="1011" y="572" type="line"/>
			<point x="1011" y="422" type="line" smooth="yes"/>
			<point x="1011" y="346"/>
			<point x="988" y="309"/>
			<point x="927" y="284" type="curve"/>
			<point x="919" y="205"/>
			<point x="843" y="199"/>
		</contour>
		<contour>
			<point x="887" y="9" type="line"/>
			<point x="729" y="191" type="line"/>
			<point x="729" y="228" type="line"/>
			<point x="828" y="236" type="line"/>
			<point x="848" y="223"/>
			<point x="862" y="212"/>
			<point x="882" y="195" type="curve"/>
			<point x="882" y="191" type="line"/>
			<point x="947" y="147"/>
			<point x="1014" y="68"/>
			<point x="1053" y="11" type="curve"/>
			<point x="1053" y="9" type="line"/>
		</contour>
		<contour>
			<point x="852" y="195" type="line"/>
			<point x="852" y="309" type="line"/>
			<point x="1182" y="309" type="line"/>
			<point x="1182" y="195" type="line"/>
		</contour>
		<contour>
			<point x="670" y="500" type="line"/>
			<point x="670" y="607" type="line"/>
			<point x="1154" y="607" type="line"/>
			<point x="1154" y="500" type="line"/>
		</contour>
		<contour>
			<point x="1174" y="9" type="line"/>
			<point x="1174" y="501" type="line"/>
			<point x="1322" y="501" type="line"/>
			<point x="1322" y="9" type="line"/>
		</contour>
		<contour>
			<point x="1031" y="500" type="line"/>
			<point x="1031" y="607" type="line"/>
			<point x="1422" y="607" type="line"/>
			<point x="1422" y="500" type="line"/>
		</contour>
		<contour>
			<point x="915" y="281" type="curve"/>
			<point x="833" y="208" type="line"/>
			<point x="802" y="230"/>
			<point x="747" y="237"/>
			<point x="677" y="237" type="curve" smooth="yes"/>
			<point x="623" y="237"/>
			<point x="561" y="224"/>
			<point x="522" y="206" type="curve"/>
			<point x="534" y="329" type="line"/>
			<point x="536" y="329" type="line"/>
			<point x="574" y="344"/>
			<point x="642" y="354"/>
			<point x="699" y="354" type="curve" smooth="yes"/>
			<point x="747" y="354"/>
			<point x="805" y="346"/>
			<point x="831" y="338" type="curve"/>
			<point x="833" y="338" type="line"/>
			<point x="875" y="326"/>
			<point x="899" y="313"/>
		</contour>
	</outline>
</glyph>
<glyph name="dvK_SHA" format="2">
	<advance width="1419"/>
	<outline>
		<contour>
			<point x="855" y="272" type="curve"/>
			<point x="768" y="200" type="line"/>
			<point x="744" y="226"/>
			<point x="738" y="235"/>
			<point x="657" y="235" type="curve" smooth="yes"/>
			<point x="603" y="235"/>
			<point x="559" y="226"/>
			<point x="522" y="206" type="curve"/>
			<point x="534" y="329" type="line"/>
			<point x="536" y="329" type="line"/>
			<point x="566" y="344"/>
			<point x="622" y="354"/>
			<point x="679" y="354" type="curve" smooth="yes"/>
			<point x="761" y="354"/>
			<point x="828" y="325"/>
		</contour>
		<contour>
			<point x="193" y="436" type="curve" smooth="yes"/>
			<point x="240" y="436"/>
			<point x="291" y="430"/>
			<point x="328" y="419" type="curve"/>
			<point x="326" y="305" type="line"/>
			<point x="322" y="304" type="line"/>
			<point x="299" y="310"/>
			<point x="272" y="315"/>
			<point x="236" y="315" type="curve" smooth="yes"/>
			<point x="174" y="315"/>
			<point x="160" y="298"/>
			<point x="160" y="248" type="curve" smooth="yes"/>
			<point x="160" y="198"/>
			<point x="174" y="181"/>
			<point x="263" y="181" type="curve" smooth="yes"/>
			<point x="317" y="181"/>
			<point x="361" y="190"/>
			<point x="398" y="210" type="curve"/>
			<point x="386" y="87" type="line"/>
			<point x="384" y="87" type="line"/>
			<point x="354" y="72"/>
			<point x="298" y="62"/>
			<point x="241" y="62" type="curve" smooth="yes"/>
			<point x="76" y="62"/>
			<point x="25" y="108"/>
			<point x="25" y="250" type="curve" smooth="yes"/>
			<point x="25" y="390"/>
			<point x="71" y="436"/>
		</contour>
		<contour>
			<point x="386" y="9" type="line"/>
			<point x="386" y="501" type="line"/>
			<point x="534" y="501" type="line"/>
			<point x="534" y="9" type="line"/>
		</contour>
		<contour>
			<point x="-25" y="500" type="line"/>
			<point x="-25" y="607" type="line"/>
			<point x="714" y="607" type="line"/>
			<point x="714" y="500" type="line"/>
		</contour>
		<contour>
			<point x="1211" y="9" type="line"/>
			<point x="1211" y="501" type="line"/>
			<point x="1359" y="501" type="line"/>
			<point x="1359" y="9" type="line"/>
		</contour>
		<contour>
			<point x="1211" y="500" type="line"/>
			<point x="1211" y="607" type="line"/>
			<point x="1459" y="607" type="line"/>
			<point x="1459" y="500" type="line"/>
		</contour>
		<contour>
			<point x="892" y="434" type="curve"/>
			<point x="892" y="432" type="line"/>
			<point x="770" y="432" type="line"/>
			<point x="768" y="441"/>
			<point x="766" y="455"/>
			<point x="766" y="467" type="curve" smooth="yes"/>
			<point x="766" y="563"/>
			<point x="822" y="615"/>
			<point x="947" y="615" type="curve" smooth="yes"/>
			<point x="1072" y="615"/>
			<point x="1128" y="557"/>
			<point x="1128" y="433" type="curve" smooth="yes"/>
			<point x="1128" y="317"/>
			<point x="1053" y="230"/>
			<point x="900" y="230" type="curve" smooth="yes"/>
			<point x="882" y="230"/>
			<point x="883" y="231"/>
			<point x="862" y="235" type="curve"/>
			<point x="746" y="224" type="line"/>
			<point x="746" y="343" type="line"/>
			<point x="841" y="343" type="line"/>
			<point x="948" y="343"/>
			<point x="994" y="383"/>
			<point x="994" y="442" type="curve" smooth="yes"/>
			<point x="994" y="487"/>
			<point x="979" y="506"/>
			<point x="942" y="506" type="curve" smooth="yes"/>
			<point x="904" y="506"/>
			<point x="889" y="487"/>
			<point x="889" y="457" type="curve" smooth="yes"/>
			<point x="889" y="448"/>
			<point x="890" y="440"/>
		</contour>
		<contour>
			<point x="952" y="9" type="line"/>
			<point x="746" y="223" type="line"/>
			<point x="746" y="250" type="line"/>
			<point x="893" y="232" type="line"/>
			<point x="893" y="228" type="line"/>
			<point x="976" y="173"/>
			<point x="1054" y="100"/>
			<point x="1130" y="11" type="curve"/>
			<point x="1130" y="9" type="line"/>
		</contour>
	</outline>
</glyph>
<glyph name="dvK_SS_VA" format="2">
	<advance width="1230"/>
	<outline>
		<contour>
			<point x="759" y="262" type="line"/>
			<point x="302" y="262" type="line" smooth="yes"/>
			<point x="229" y="262"/>
			<point x="212" y="250"/>
			<point x="212" y="203" type="curve" smooth="yes"/>
			<point x="212" y="159"/>
			<point x="225" y="146"/>
			<point x="294" y="146" type="curve" smooth="yes"/>
			<point x="370" y="146"/>
			<point x="386" y="156"/>
			<point x="386" y="179" type="curve" smooth="yes"/>
			<point x="386" y="205" type="line"/>
			<point x="521" y="205" type="line"/>
			<point x="521" y="-26" type="line"/>
			<point x="378" y="-26" type="line"/>
			<point x="377" y="2"/>
			<point x="377" y="19"/>
			<point x="381" y="47" type="curve"/>
			<point x="379" y="48" type="line"/>
			<point x="342" y="33"/>
			<point x="307" y="25"/>
			<point x="250" y="25" type="curve" smooth="yes"/>
			<point x="126" y="25"/>
			<point x="58" y="68"/>
			<point x="58" y="185" type="curve" smooth="yes"/>
			<point x="58" y="269"/>
			<point x="102" y="308"/>
			<point x="153" y="317" type="curve"/>
			<point x="153" y="320" type="line"/>
			<point x="108" y="339"/>
			<point x="78" y="377"/>
			<point x="78" y="457" type="curve" smooth="yes"/>
			<point x="78" y="560"/>
			<point x="148" y="613"/>
			<point x="299" y="613" type="curve" smooth="yes"/>
			<point x="447" y="613"/>
			<point x="519" y="561"/>
			<point x="519" y="468" type="curve" smooth="yes"/>
			<point x="519" y="420"/>
			<point x="509" y="395"/>
			<point x="488" y="374" type="curve"/>
			<point x="488" y="372" type="line"/>
			<point x="759" y="372" type="line"/>
		</contour>
		<contour>
			<point x="379" y="445" type="curve" smooth="yes"/>
			<point x="379" y="480"/>
			<point x="363" y="502"/>
			<point x="300" y="502" type="curve" smooth="yes"/>
			<point x="244" y="502"/>
			<point x="221" y="480"/>
			<point x="221" y="445" type="curve" smooth="yes"/>
			<point x="221" y="405"/>
			<point x="244" y="390"/>
			<point x="300" y="390" type="curve" smooth="yes"/>
			<point x="363" y="390"/>
			<point x="379" y="405"/>
		</contour>
		<contour>
			<point x="832" y="439" type="curve" smooth="yes"/>
			<point x="882" y="439"/>
			<point x="925" y="433"/>
			<point x="964" y="423" type="curve"/>
			<point x="964" y="308" type="line"/>
			<point x="960" y="307" type="line"/>
			<point x="937" y="312"/>
			<point x="908" y="315"/>
			<point x="877" y="315" type="curve" smooth="yes"/>
			<point x="814" y="315"/>
			<point x="794" y="303"/>
			<point x="794" y="246" type="curve" smooth="yes"/>
			<point x="794" y="188"/>
			<point x="824" y="176"/>
			<point x="905" y="176" type="curve" smooth="yes"/>
			<point x="959" y="176"/>
			<point x="996" y="184"/>
			<point x="1030" y="203" type="curve"/>
			<point x="1057" y="96" type="line"/>
			<point x="1023" y="83" type="line"/>
			<point x="1019" y="85" type="line"/>
			<point x="982" y="67"/>
			<point x="921" y="56"/>
			<point x="866" y="56" type="curve" smooth="yes"/>
			<point x="704" y="56"/>
			<point x="644" y="111"/>
			<point x="644" y="251" type="curve" smooth="yes"/>
			<point x="644" y="385"/>
			<point x="704" y="439"/>
		</contour>
		<contour>
			<point x="1022" y="9" type="line"/>
			<point x="1022" y="501" type="line"/>
			<point x="1170" y="501" type="line"/>
			<point x="1170" y="9" type="line"/>
		</contour>
		<contour>
			<point x="579" y="500" type="line"/>
			<point x="579" y="607" type="line"/>
			<point x="1270" y="607" type="line"/>
			<point x="1270" y="500" type="line"/>
		</contour>
	</outline>
</glyph>
<glyph name="dvK_YA" format="2">
	<advance width="1363"/>
	<anchor x="460" y="9" name="blwm"/>
	<anchor x="460" y="607" name="abvm"/>
	<outline>
		<contour>
			<point x="193" y="436" type="curve" smooth="yes"/>
			<point x="240" y="436"/>
			<point x="291" y="430"/>
			<point x="328" y="419" type="curve"/>
			<point x="326" y="305" type="line"/>
			<point x="322" y="304" type="line"/>
			<point x="299" y="310"/>
			<point x="272" y="315"/>
			<point x="236" y="315" type="curve" smooth="yes"/>
			<point x="174" y="315"/>
			<point x="160" y="298"/>
			<point x="160" y="248" type="curve" smooth="yes"/>
			<point x="160" y="198"/>
			<point x="174" y="181"/>
			<point x="263" y="181" type="curve" smooth="yes"/>
			<point x="317" y="181"/>
			<point x="361" y="190"/>
			<point x="398" y="210" type="curve"/>
			<point x="386" y="87" type="line"/>
			<point x="384" y="87" type="line"/>
			<point x="354" y="72"/>
			<point x="298" y="62"/>
			<point x="241" y="62" type="curve" smooth="yes"/>
			<point x="76" y="62"/>
			<point x="25" y="108"/>
			<point x="25" y="250" type="curve" smooth="yes"/>
			<point x="25" y="390"/>
			<point x="71" y="436"/>
		</contour>
		<contour>
			<point x="386" y="9" type="line"/>
			<point x="386" y="501" type="line"/>
			<point x="534" y="501" type="line"/>
			<point x="534" y="9" type="line"/>
		</contour>
		<contour>
			<point x="-25" y="500" type="line"/>
			<point x="-25" y="607" type="line"/>
			<point x="863" y="607" type="line"/>
			<point x="863" y="500" type="line"/>
		</contour>
		<contour>
			<point x="825" y="321" type="curve"/>
			<point x="714" y="232" type="line"/>
			<point x="709" y="262"/>
			<point x="698" y="275"/>
			<point x="657" y="275" type="curve" smooth="yes"/>
			<point x="603" y="275"/>
			<point x="559" y="266"/>
			<point x="522" y="246" type="curve"/>
			<point x="534" y="369" type="line"/>
			<point x="536" y="369" type="line"/>
			<point x="566" y="384"/>
			<point x="622" y="394"/>
			<point x="679" y="394" type="curve" smooth="yes"/>
			<point x="741" y="394"/>
			<point x="798" y="374"/>
		</contour>
		<contour>
			<point x="1155" y="9" type="line"/>
			<point x="1155" y="501" type="line"/>
			<point x="1303" y="501" type="line"/>
			<point x="1303" y="9" type="line"/>
		</contour>
		<contour>
			<point x="645" y="500" type="line"/>
			<point x="645" y="607" type="line"/>
			<point x="1403" y="607" type="line"/>
			<point x="1403" y="500" type="line"/>
		</contour>
		<contour>
			<point x="1006" y="520" type="line"/>
			<point x="1006" y="422" type="line" smooth="yes"/>
			<point x="1006" y="320"/>
			<point x="963" y="277"/>
			<point x="842" y="270" type="curve"/>
			<point x="843" y="227"/>
			<point x="889" y="200"/>
			<point x="999" y="200" type="curve" smooth="yes"/>
			<point x="1087" y="200"/>
			<point x="1150" y="216"/>
			<point x="1204" y="257" type="curve"/>
			<point x="1235" y="146" type="line"/>
			<point x="1210" y="125"/>
			<point x="1188" y="110"/>
			<point x="1155" y="98" type="curve"/>
			<point x="1151" y="100" type="line"/>
			<point x="1104" y="84"/>
			<point x="1052" y="76"/>
			<point x="985" y="76" type="curve" smooth="yes"/>
			<point x="804" y="76"/>
			<point x="708" y="156"/>
			<point x="708" y="282" type="curve" smooth="yes"/>
			<point x="708" y="367" type="line"/>
			<point x="756" y="367" type="line" smooth="yes"/>
			<point x="849" y="367"/>
			<point x="864" y="379"/>
			<point x="864" y="464" type="curve" smooth="yes"/>
			<point x="864" y="520" type="line"/>
		</contour>
	</outline>
</glyph>
<glyph name="dvKx_PHxA" format="2">
	<advance width="1581"/>
	<anchor x="1051" y="-51" name="blwm.virama"/>
	<anchor x="1198" y="607" name="abvm.bindu"/>
	<anchor x="1133" y="-81" name="blwm.u"/>
	<anchor x="1199" y="607" name="abvm.e"/>
	<outline>
		<contour>
			<point x="193" y="436" type="curve" smooth="yes"/>
			<point x="240" y="436"/>
			<point x="291" y="430"/>
			<point x="328" y="419" type="curve"/>
			<point x="326" y="305" type="line"/>
			<point x="322" y="304" type="line"/>
			<point x="299" y="310"/>
			<point x="272" y="315"/>
			<point x="236" y="315" type="curve" smooth="yes"/>
			<point x="174" y="315"/>
			<point x="160" y="298"/>
			<point x="160" y="248" type="curve" smooth="yes"/>
			<point x="160" y="198"/>
			<point x="174" y="181"/>
			<point x="263" y="181" type="curve" smooth="yes"/>
			<point x="317" y="181"/>
			<point x="361" y="190"/>
			<point x="398" y="210" type="curve"/>
			<point x="386" y="87" type="line"/>
			<point x="384" y="87" type="line"/>
			<point x="354" y="72"/>
			<point x="298" y="62"/>
			<point x="241" y="62" type="curve" smooth="yes"/>
			<point x="76" y="62"/>
			<point x="25" y="108"/>
			<point x="25" y="250" type="curve" smooth="yes"/>
			<point x="25" y="390"/>
			<point x="71" y="436"/>
		</contour>
		<contour>
			<point x="386" y="9" type="line"/>
			<point x="386" y="501" type="line"/>
			<point x="534" y="501" type="line"/>
			<point x="534" y="9" type="line"/>
		</contour>
		<contour>
			<point x="-25" y="500" type="line"/>
			<point x="-25" y="607" type="line"/>
			<point x="863" y="607" type="line"/>
			<point x="863" y="500" type="line"/>
		</contour>
		<contour>
			<point x="865" y="321" type="curve"/>
			<point x="776" y="240" type="line"/>
			<point x="767" y="266"/>
			<point x="738" y="275"/>
			<point x="657" y="275" type="curve" smooth="yes"/>
			<point x="603" y="275"/>
			<point x="559" y="266"/>
			<point x="522" y="246" type="curve"/>
			<point x="534" y="369" type="line"/>
			<point x="536" y="369" type="line"/>
			<point x="566" y="384"/>
			<point x="622" y="394"/>
			<point x="679" y="394" type="curve"/>
			<point x="781" y="394"/>
			<point x="838" y="374"/>
		</contour>
		<contour>
			<point x="243" y="4" type="curve"/>
			<point x="245" y="-18"/>
			<point x="246" y="-33"/>
			<point x="246" y="-49" type="curve" smooth="yes"/>
			<point x="246" y="-65"/>
			<point x="245" y="-81"/>
			<point x="243" y="-102" type="curve"/>
			<point x="217" y="-107"/>
			<point x="192" y="-110"/>
			<point x="167" y="-110" type="curve" smooth="yes"/>
			<point x="143" y="-110"/>
			<point x="119" y="-107"/>
			<point x="94" y="-102" type="curve"/>
			<point x="91" y="-82"/>
			<point x="90" y="-66"/>
			<point x="90" y="-50" type="curve" smooth="yes"/>
			<point x="90" y="-35"/>
			<point x="91" y="-18"/>
			<point x="94" y="4" type="curve"/>
			<point x="119" y="9"/>
			<point x="144" y="11"/>
			<point x="169" y="11" type="curve" smooth="yes"/>
			<point x="193" y="11"/>
			<point x="218" y="9"/>
		</contour>
		<contour>
			<point x="926" y="35" type="curve"/>
			<point x="928" y="13"/>
			<point x="929" y="-2"/>
			<point x="929" y="-18" type="curve" smooth="yes"/>
			<point x="929" y="-34"/>
			<point x="928" y="-50"/>
			<point x="926" y="-71" type="curve"/>
			<point x="900" y="-76"/>
			<point x="875" y="-79"/>
			<point x="850" y="-79" type="curve" smooth="yes"/>
			<point x="826" y="-79"/>
			<point x="802" y="-76"/>
			<point x="777" y="-71" type="curve"/>
			<point x="774" y="-51"/>
			<point x="773" y="-35"/>
			<point x="773" y="-19" type="curve" smooth="yes"/>
			<point x="773" y="-4"/>
			<point x="774" y="13"/>
			<point x="777" y="35" type="curve"/>
			<point x="802" y="40"/>
			<point x="827" y="42"/>
			<point x="852" y="42" type="curve" smooth="yes"/>
			<point x="876" y="42"/>
			<point x="901" y="40"/>
		</contour>
		<component base="dvPHA" xOffset="685"/>
	</outline>
</glyph>
<glyph name="dvL_JxA" format="2">
	<advance width="1205"/>
	<outline>
		<contour>
			<point x="-10" y="500" type="line"/>
			<point x="-10" y="607" type="line"/>
			<point x="622" y="607" type="line"/>
			<point x="622" y="500" type="line"/>
		</contour>
		<contour>
			<point x="998" y="9" type="line"/>
			<point x="998" y="502" type="line"/>
			<point x="1145" y="502" type="line"/>
			<point x="1145" y="9" type="line"/>
		</contour>
		<contour>
			<point x="497" y="500" type="line"/>
			<point x="497" y="607" type="line"/>
			<point x="1245" y="607" type="line"/>
			<point x="1245" y="500" type="line"/>
		</contour>
		<contour>
			<point x="32" y="241" type="curve" smooth="yes"/>
			<point x="32" y="367"/>
			<point x="88" y="425"/>
			<point x="211" y="425" type="curve" smooth="yes"/>
			<point x="315" y="425"/>
			<point x="365" y="388"/>
			<point x="374" y="331" type="curve"/>
			<point x="377" y="331" type="line"/>
			<point x="387" y="385"/>
			<point x="427" y="422"/>
			<point x="511" y="422" type="curve"/>
			<point x="1101" y="421" type="line"/>
			<point x="1101" y="302" type="line"/>
			<point x="836" y="302" type="line"/>
			<point x="836" y="300" type="line"/>
			<point x="874" y="285"/>
			<point x="893" y="237"/>
			<point x="893" y="180" type="curve" smooth="yes"/>
			<point x="893" y="47"/>
			<point x="855" y="0"/>
			<point x="715" y="0" type="curve" smooth="yes"/>
			<point x="648" y="0"/>
			<point x="595" y="8"/>
			<point x="553" y="20" type="curve"/>
			<point x="553" y="134" type="line"/>
			<point x="555" y="135" type="line"/>
			<point x="587" y="127"/>
			<point x="625" y="121"/>
			<point x="672" y="121" type="curve" smooth="yes"/>
			<point x="736" y="121"/>
			<point x="757" y="135"/>
			<point x="757" y="209" type="curve" smooth="yes"/>
			<point x="757" y="297"/>
			<point x="724" y="309"/>
			<point x="594" y="309" type="curve" smooth="yes"/>
			<point x="482" y="309"/>
			<point x="447" y="284"/>
			<point x="447" y="198" type="curve" smooth="yes"/>
			<point x="447" y="131" type="line"/>
			<point x="315" y="131" type="line"/>
			<point x="315" y="198" type="line" smooth="yes"/>
			<point x="315" y="279"/>
			<point x="294" y="299"/>
			<point x="248" y="299" type="curve" smooth="yes"/>
			<point x="198" y="299"/>
			<point x="175" y="279"/>
			<point x="175" y="208" type="curve" smooth="yes"/>
			<point x="175" y="143"/>
			<point x="188" y="80"/>
			<point x="213" y="19" type="curve"/>
			<point x="213" y="14" type="line"/>
			<point x="79" y="14" type="line"/>
			<point x="47" y="87"/>
			<point x="32" y="164"/>
		</contour>
		<contour>
			<point x="698" y="-59" type="curve"/>
			<point x="700" y="-81"/>
			<point x="701" y="-96"/>
			<point x="701" y="-112" type="curve" smooth="yes"/>
			<point x="701" y="-128"/>
			<point x="700" y="-144"/>
			<point x="698" y="-165" type="curve"/>
			<point x="672" y="-170"/>
			<point x="647" y="-173"/>
			<point x="622" y="-173" type="curve" smooth="yes"/>
			<point x="598" y="-173"/>
			<point x="574" y="-170"/>
			<point x="549" y="-165" type="curve"/>
			<point x="546" y="-145"/>
			<point x="545" y="-129"/>
			<point x="545" y="-113" type="curve" smooth="yes"/>
			<point x="545" y="-98"/>
			<point x="546" y="-81"/>
			<point x="549" y="-59" type="curve"/>
			<point x="574" y="-54"/>
			<point x="599" y="-52"/>
			<point x="624" y="-52" type="curve" smooth="yes"/>
			<point x="648" y="-52"/>
			<point x="673" y="-54"/>
		</contour>
	</outline>
</glyph>
<glyph name="dvL_TTA" format="2">
	<advance width="1035"/>
	<anchor x="807" y="-90" name="blwm.u"/>
	<outline>
		<contour>
			<point x="824" y="320" type="line"/>
			<point x="824" y="505" type="line"/>
			<point x="962" y="505" type="line"/>
			<point x="962" y="320" type="line"/>
		</contour>
		<contour>
			<point x="517" y="500" type="line"/>
			<point x="517" y="607" type="line"/>
			<point x="1075" y="607" type="line"/>
			<point x="1075" y="500" type="line"/>
		</contour>
		<contour>
			<point x="1000" y="145" type="curve"/>
			<point x="1002" y="144" type="line"/>
			<point x="1002" y="23" type="line"/>
			<point x="948" y="8"/>
			<point x="890" y="0"/>
			<point x="804" y="0" type="curve" smooth="yes"/>
			<point x="663" y="0"/>
			<point x="573" y="48"/>
			<point x="573" y="218" type="curve" smooth="yes"/>
			<point x="573" y="388"/>
			<point x="644" y="436"/>
			<point x="770" y="436" type="curve" smooth="yes"/>
			<point x="829" y="436"/>
			<point x="933" y="434"/>
			<point x="954" y="432" type="curve"/>
			<point x="954" y="320" type="line"/>
			<point x="818" y="320" type="line" smooth="yes"/>
			<point x="742" y="320"/>
			<point x="717" y="302"/>
			<point x="717" y="220" type="curve" smooth="yes"/>
			<point x="717" y="137"/>
			<point x="747" y="128"/>
			<point x="839" y="128" type="curve" smooth="yes"/>
			<point x="891" y="128"/>
			<point x="956" y="133"/>
		</contour>
		<component base="dvL"/>
	</outline>
</glyph>
<glyph name="dvM_SHA" format="2">
	<advance width="1104"/>
	<outline>
		<contour>
			<point x="-75" y="500" type="line"/>
			<point x="-75" y="607" type="line"/>
			<point x="408" y="607" type="line"/>
			<point x="408" y="500" type="line"/>
		</contour>
		<contour>
			<point x="157" y="223" type="line"/>
			<point x="157" y="342" type="line"/>
			<point x="540" y="343" type="line"/>
			<point x="540" y="224" type="line"/>
		</contour>
		<contour>
			<point x="107" y="336" type="curve"/>
			<point x="107" y="500" type="line"/>
			<point x="255" y="500" type="line"/>
			<point x="255" y="252" type="line" smooth="yes"/>
			<point x="255" y="158"/>
			<point x="238" y="150"/>
			<point x="146" y="150" type="curve" smooth="yes"/>
			<point x="49" y="150"/>
			<point x="26" y="169"/>
			<point x="26" y="243" type="curve" smooth="yes"/>
			<point x="26" y="318"/>
			<point x="47" y="336"/>
		</contour>
		<component base="dvSHA" xOffset="400"/>
	</outline>
</glyph>
<glyph name="dvN_DH_RA" format="2">
	<advance width="993"/>
	<outline>
		<contour>
			<point x="612" y="80" type="curve" smooth="yes"/>
			<point x="675" y="80"/>
			<point x="738" y="92"/>
			<point x="781" y="111" type="curve"/>
			<point x="784" y="109" type="line"/>
			<point x="807" y="124" type="line"/>
			<point x="790" y="217" type="line"/>
			<point x="769" y="199"/>
			<point x="685" y="187"/>
			<point x="653" y="187" type="curve" smooth="yes"/>
			<point x="578" y="187"/>
			<point x="556" y="200"/>
			<point x="556" y="228" type="curve" smooth="yes"/>
			<point x="556" y="268"/>
			<point x="578" y="280"/>
			<point x="653" y="280" type="curve" smooth="yes"/>
			<point x="682" y="280" type="line"/>
			<point x="682" y="395" type="line"/>
			<point x="653" y="395" type="line" smooth="yes"/>
			<point x="570" y="395"/>
			<point x="548" y="411"/>
			<point x="548" y="447" type="curve" smooth="yes"/>
			<point x="548" y="483"/>
			<point x="560" y="500"/>
			<point x="623" y="500" type="curve"/>
			<point x="623" y="606" type="line"/>
			<point x="432" y="501" type="line"/>
			<point x="432" y="497" type="line"/>
			<point x="412" y="486"/>
			<point x="402" y="468"/>
			<point x="402" y="440" type="curve" smooth="yes"/>
			<point x="402" y="412"/>
			<point x="413" y="391"/>
			<point x="432" y="383" type="curve"/>
			<point x="432" y="381" type="line"/>
			<point x="134" y="383" type="line" smooth="yes"/>
			<point x="52" y="384"/>
			<point x="31" y="372"/>
			<point x="31" y="290" type="curve" smooth="yes"/>
			<point x="31" y="214"/>
			<point x="51" y="197"/>
			<point x="131" y="197" type="curve" smooth="yes"/>
			<point x="206" y="197"/>
			<point x="230" y="205"/>
			<point x="233" y="271" type="curve"/>
			<point x="453" y="272" type="line"/>
			<point x="453" y="270" type="line"/>
			<point x="435" y="257"/>
			<point x="420" y="232"/>
			<point x="420" y="200" type="curve" smooth="yes"/>
			<point x="420" y="140"/>
			<point x="459" y="80"/>
		</contour>
		<contour>
			<point x="539" y="-28" type="curve"/>
			<point x="539" y="-32" type="line"/>
			<point x="704" y="-32" type="line"/>
			<point x="783" y="110" type="line"/>
			<point x="659" y="105" type="line"/>
			<point x="650" y="81" type="line"/>
			<point x="650" y="78" type="line"/>
			<point x="604" y="46"/>
			<point x="567" y="10"/>
		</contour>
		<contour>
			<point x="-60" y="500" type="line"/>
			<point x="453" y="500" type="line"/>
			<point x="453" y="607" type="line"/>
			<point x="-60" y="607" type="line"/>
		</contour>
		<contour>
			<point x="298" y="500" type="line"/>
			<point x="672" y="500" type="line"/>
			<point x="672" y="607" type="line"/>
			<point x="298" y="607" type="line"/>
		</contour>
		<contour>
			<point x="784" y="9" type="line"/>
			<point x="933" y="9" type="line"/>
			<point x="933" y="501" type="line"/>
			<point x="784" y="501" type="line"/>
		</contour>
		<contour>
			<point x="785" y="500" type="line"/>
			<point x="1033" y="500" type="line"/>
			<point x="1033" y="607" type="line"/>
			<point x="785" y="607" type="line"/>
		</contour>
	</outline>
</glyph>
<glyph name="dvN_DH_YA" format="2">
	<advance width="1455"/>
	<outline>
		<contour>
			<point x="-60" y="500" type="line"/>
			<point x="-60" y="607" type="line"/>
			<point x="453" y="607" type="line"/>
			<point x="453" y="500" type="line"/>
		</contour>
		<contour>
			<point x="298" y="500" type="line"/>
			<point x="298" y="607" type="line"/>
			<point x="637" y="607" type="line"/>
			<point x="637" y="500" type="line"/>
		</contour>
		<contour>
			<point x="1247" y="9" type="line"/>
			<point x="1247" y="501" type="line"/>
			<point x="1395" y="501" type="line"/>
			<point x="1395" y="9" type="line"/>
		</contour>
		<contour>
			<point x="752" y="500" type="line"/>
			<point x="752" y="607" type="line"/>
			<point x="1495" y="607" type="line"/>
			<point x="1495" y="500" type="line"/>
		</contour>
		<contour>
			<point x="1098" y="520" type="line"/>
			<point x="1098" y="422" type="line" smooth="yes"/>
			<point x="1098" y="320"/>
			<point x="1055" y="277"/>
			<point x="934" y="270" type="curve"/>
			<point x="935" y="227"/>
			<point x="981" y="200"/>
			<point x="1091" y="200" type="curve" smooth="yes"/>
			<point x="1179" y="200"/>
			<point x="1242" y="216"/>
			<point x="1296" y="257" type="curve"/>
			<point x="1327" y="146" type="line"/>
			<point x="1302" y="125"/>
			<point x="1280" y="110"/>
			<point x="1247" y="98" type="curve"/>
			<point x="1243" y="100" type="line"/>
			<point x="1196" y="84"/>
			<point x="1144" y="76"/>
			<point x="1077" y="76" type="curve" smooth="yes"/>
			<point x="896" y="76"/>
			<point x="800" y="156"/>
			<point x="800" y="312" type="curve" smooth="yes"/>
			<point x="800" y="367" type="line"/>
			<point x="848" y="367" type="line" smooth="yes"/>
			<point x="941" y="367"/>
			<point x="956" y="379"/>
			<point x="956" y="464" type="curve" smooth="yes"/>
			<point x="956" y="520" type="line"/>
		</contour>
		<contour>
			<point x="31" y="290" type="curve" smooth="yes"/>
			<point x="31" y="372"/>
			<point x="52" y="384"/>
			<point x="134" y="383" type="curve" smooth="yes"/>
			<point x="432" y="381" type="line"/>
			<point x="432" y="383" type="line"/>
			<point x="413" y="391"/>
			<point x="402" y="412"/>
			<point x="402" y="440" type="curve" smooth="yes"/>
			<point x="402" y="468"/>
			<point x="412" y="486"/>
			<point x="432" y="497" type="curve"/>
			<point x="432" y="501" type="line"/>
			<point x="623" y="606" type="line"/>
			<point x="623" y="500" type="line"/>
			<point x="560" y="500"/>
			<point x="548" y="483"/>
			<point x="548" y="447" type="curve" smooth="yes"/>
			<point x="548" y="411"/>
			<point x="570" y="395"/>
			<point x="653" y="395" type="curve" smooth="yes"/>
			<point x="682" y="395" type="line"/>
			<point x="682" y="280" type="line"/>
			<point x="653" y="280" type="line" smooth="yes"/>
			<point x="578" y="280"/>
			<point x="556" y="268"/>
			<point x="556" y="228" type="curve" smooth="yes"/>
			<point x="556" y="190"/>
			<point x="588" y="175"/>
			<point x="683" y="175" type="curve" smooth="yes"/>
			<point x="746" y="175"/>
			<point x="816" y="193"/>
			<point x="863" y="224" type="curve"/>
			<point x="911" y="118" type="line"/>
			<point x="863" y="76"/>
			<point x="756" y="52"/>
			<point x="647" y="52" type="curve" smooth="yes"/>
			<point x="493" y="52"/>
			<point x="421" y="95"/>
			<point x="421" y="186" type="curve" smooth="yes"/>
			<point x="421" y="224"/>
			<point x="434" y="255"/>
			<point x="453" y="270" type="curve"/>
			<point x="453" y="272" type="line"/>
			<point x="233" y="271" type="line"/>
			<point x="230" y="205"/>
			<point x="206" y="197"/>
			<point x="131" y="197" type="curve" smooth="yes"/>
			<point x="51" y="197"/>
			<point x="31" y="214"/>
		</contour>
	</outline>
</glyph>
<glyph name="dvN_TH_YA" format="2">
	<advance width="1532"/>
	<outline>
		<contour>
			<point x="670" y="70" type="curve" smooth="yes"/>
			<point x="787" y="70"/>
			<point x="878" y="94"/>
			<point x="955" y="140" type="curve"/>
			<point x="936" y="264" type="line"/>
			<point x="854" y="217"/>
			<point x="766" y="196"/>
			<point x="687" y="196" type="curve" smooth="yes"/>
			<point x="593" y="196"/>
			<point x="538" y="217"/>
			<point x="535" y="265" type="curve"/>
			<point x="548" y="264"/>
			<point x="562" y="263"/>
			<point x="574" y="263" type="curve" smooth="yes"/>
			<point x="703" y="263"/>
			<point x="769" y="322"/>
			<point x="769" y="443" type="curve" smooth="yes"/>
			<point x="769" y="559"/>
			<point x="709" y="616"/>
			<point x="595" y="616" type="curve" smooth="yes"/>
			<point x="481" y="616"/>
			<point x="418" y="572"/>
			<point x="418" y="465" type="curve" smooth="yes"/>
			<point x="418" y="454"/>
			<point x="419" y="443"/>
			<point x="421" y="432" type="curve"/>
			<point x="544" y="432" type="line"/>
			<point x="544" y="434" type="line"/>
			<point x="542" y="440"/>
			<point x="541" y="448"/>
			<point x="541" y="455" type="curve" smooth="yes"/>
			<point x="541" y="481"/>
			<point x="553" y="500"/>
			<point x="588" y="500" type="curve" smooth="yes"/>
			<point x="622" y="500"/>
			<point x="636" y="484"/>
			<point x="636" y="444" type="curve" smooth="yes"/>
			<point x="636" y="385"/>
			<point x="600" y="366"/>
			<point x="508" y="366" type="curve"/>
			<point x="393" y="366" type="line"/>
			<point x="393" y="321" type="line" smooth="yes"/>
			<point x="393" y="151"/>
			<point x="473" y="70"/>
		</contour>
		<contour>
			<point x="131" y="179" type="curve" smooth="yes"/>
			<point x="214" y="179"/>
			<point x="234" y="189"/>
			<point x="234" y="276" type="curve" smooth="yes"/>
			<point x="234" y="365" type="line"/>
			<point x="134" y="365" type="line"/>
			<point x="52" y="365"/>
			<point x="31" y="354"/>
			<point x="31" y="272" type="curve" smooth="yes"/>
			<point x="31" y="196"/>
			<point x="51" y="179"/>
		</contour>
		<contour>
			<point x="146" y="253" type="line"/>
			<point x="453" y="254" type="line"/>
			<point x="453" y="366" type="line"/>
			<point x="146" y="365" type="line"/>
		</contour>
		<contour>
			<point x="-60" y="500" type="line"/>
			<point x="358" y="500" type="line"/>
			<point x="358" y="607" type="line"/>
			<point x="-60" y="607" type="line"/>
		</contour>
		<contour>
			<point x="1154" y="76" type="curve" smooth="yes"/>
			<point x="1221" y="76"/>
			<point x="1273" y="84"/>
			<point x="1320" y="100" type="curve"/>
			<point x="1324" y="98" type="line"/>
			<point x="1357" y="110"/>
			<point x="1379" y="125"/>
			<point x="1404" y="146" type="curve"/>
			<point x="1373" y="257" type="line"/>
			<point x="1319" y="216"/>
			<point x="1256" y="200"/>
			<point x="1168" y="200" type="curve" smooth="yes"/>
			<point x="1058" y="200"/>
			<point x="1012" y="227"/>
			<point x="1011" y="270" type="curve"/>
			<point x="1132" y="277"/>
			<point x="1175" y="320"/>
			<point x="1175" y="422" type="curve" smooth="yes"/>
			<point x="1175" y="520" type="line"/>
			<point x="1033" y="520" type="line"/>
			<point x="1033" y="464" type="line" smooth="yes"/>
			<point x="1033" y="379"/>
			<point x="1018" y="367"/>
			<point x="925" y="367" type="curve" smooth="yes"/>
			<point x="877" y="367" type="line"/>
			<point x="877" y="312" type="line" smooth="yes"/>
			<point x="877" y="156"/>
			<point x="973" y="76"/>
		</contour>
		<contour>
			<point x="1324" y="9" type="line"/>
			<point x="1472" y="9" type="line"/>
			<point x="1472" y="501" type="line"/>
			<point x="1324" y="501" type="line"/>
		</contour>
		<contour>
			<point x="814" y="500" type="line"/>
			<point x="1572" y="500" type="line"/>
			<point x="1572" y="607" type="line"/>
			<point x="814" y="607" type="line"/>
		</contour>
	</outline>
</glyph>
<glyph name="dvPH" format="2">
	<advance width="696"/>
	<anchor x="439" y="11" name="blwm"/>
	<anchor x="442" y="606" name="abvm"/>
	<outline>
		<contour>
			<point x="50" y="315" type="curve" smooth="yes"/>
			<point x="50" y="505" type="line"/>
			<point x="198" y="505" type="line"/>
			<point x="198" y="297" type="line" smooth="yes"/>
			<point x="198" y="247"/>
			<point x="217" y="228"/>
			<point x="288" y="228" type="curve" smooth="yes"/>
			<point x="324" y="228"/>
			<point x="356" y="235"/>
			<point x="377" y="248" type="curve"/>
			<point x="388" y="127" type="line"/>
			<point x="380" y="122"/>
			<point x="373" y="125"/>
			<point x="361" y="122" type="curve"/>
			<point x="359" y="123" type="line"/>
			<point x="333" y="111"/>
			<point x="295" y="103"/>
			<point x="258" y="103" type="curve" smooth="yes"/>
			<point x="97" y="103"/>
			<point x="50" y="164"/>
		</contour>
		<contour>
			<point x="361" y="9" type="line"/>
			<point x="361" y="501" type="line"/>
			<point x="510" y="501" type="line"/>
			<point x="510" y="9" type="line"/>
		</contour>
		<contour>
			<point x="-50" y="500" type="line"/>
			<point x="-50" y="607" type="line"/>
			<point x="781" y="607" type="line"/>
			<point x="781" y="500" type="line"/>
		</contour>
		<contour>
			<point x="841" y="361" type="curve"/>
			<point x="755" y="283" type="line"/>
			<point x="751" y="283" type="line"/>
			<point x="732" y="307"/>
			<point x="704" y="317"/>
			<point x="636" y="317" type="curve" smooth="yes"/>
			<point x="579" y="317"/>
			<point x="535" y="306"/>
			<point x="498" y="286" type="curve"/>
			<point x="510" y="409" type="line"/>
			<point x="512" y="409" type="line"/>
			<point x="542" y="424"/>
			<point x="598" y="434"/>
			<point x="655" y="434" type="curve" smooth="yes"/>
			<point x="757" y="434"/>
			<point x="813" y="412"/>
		</contour>
	</outline>
</glyph>
<glyph name="dvPHx_RA" format="2">
	<advance width="902"/>
	<anchor x="366" y="-51" name="blwm.virama"/>
	<anchor x="513" y="607" name="abvm.bindu"/>
	<anchor x="448" y="-81" name="blwm.u"/>
	<anchor x="514" y="607" name="abvm.e"/>
	<outline>
		<contour>
			<point x="367" y="9" type="line"/>
			<point x="367" y="501" type="line"/>
			<point x="516" y="501" type="line"/>
			<point x="516" y="9" type="line"/>
		</contour>
		<contour>
			<point x="-50" y="500" type="line"/>
			<point x="-50" y="607" type="line"/>
			<point x="947" y="607" type="line"/>
			<point x="947" y="500" type="line"/>
		</contour>
		<contour>
			<point x="709" y="60" type="curve" smooth="yes"/>
			<point x="662" y="60"/>
			<point x="611" y="66"/>
			<point x="574" y="77" type="curve"/>
			<point x="576" y="191" type="line"/>
			<point x="580" y="192" type="line"/>
			<point x="603" y="186"/>
			<point x="630" y="181"/>
			<point x="666" y="181" type="curve" smooth="yes"/>
			<point x="728" y="181"/>
			<point x="742" y="198"/>
			<point x="742" y="248" type="curve" smooth="yes"/>
			<point x="742" y="298"/>
			<point x="728" y="315"/>
			<point x="639" y="315" type="curve" smooth="yes"/>
			<point x="585" y="315"/>
			<point x="541" y="306"/>
			<point x="504" y="286" type="curve"/>
			<point x="516" y="409" type="line"/>
			<point x="518" y="409" type="line"/>
			<point x="548" y="424"/>
			<point x="604" y="434"/>
			<point x="661" y="434" type="curve" smooth="yes"/>
			<point x="826" y="434"/>
			<point x="877" y="388"/>
			<point x="877" y="246" type="curve" smooth="yes"/>
			<point x="877" y="106"/>
			<point x="831" y="60"/>
		</contour>
		<contour>
			<point x="40" y="9" type="line"/>
			<point x="40" y="13" type="line"/>
			<point x="89" y="78"/>
			<point x="140" y="129"/>
			<point x="209" y="177" type="curve"/>
			<point x="209" y="180" type="line"/>
			<point x="208" y="182" type="line"/>
			<point x="384" y="213" type="line"/>
			<point x="215" y="9" type="line"/>
		</contour>
		<contour>
			<point x="246" y="179" type="curve" smooth="yes"/>
			<point x="103" y="179"/>
			<point x="53" y="224"/>
			<point x="53" y="384" type="curve" smooth="yes"/>
			<point x="53" y="553" type="line"/>
			<point x="188" y="554" type="line"/>
			<point x="188" y="375" type="line" smooth="yes"/>
			<point x="188" y="305"/>
			<point x="221" y="288"/>
			<point x="286" y="288" type="curve" smooth="yes"/>
			<point x="327" y="288"/>
			<point x="366" y="299"/>
			<point x="390" y="314" type="curve"/>
			<point x="394" y="199" type="line"/>
			<point x="387" y="195"/>
			<point x="375" y="188"/>
			<point x="367" y="185" type="curve"/>
			<point x="363" y="187" type="line"/>
			<point x="330" y="175"/>
			<point x="291" y="179"/>
		</contour>
		<contour>
			<point x="112" y="-49" type="curve"/>
			<point x="114" y="-71"/>
			<point x="115" y="-86"/>
			<point x="115" y="-102" type="curve" smooth="yes"/>
			<point x="115" y="-118"/>
			<point x="114" y="-134"/>
			<point x="112" y="-155" type="curve"/>
			<point x="86" y="-160"/>
			<point x="61" y="-163"/>
			<point x="36" y="-163" type="curve" smooth="yes"/>
			<point x="12" y="-163"/>
			<point x="-12" y="-160"/>
			<point x="-37" y="-155" type="curve"/>
			<point x="-40" y="-135"/>
			<point x="-41" y="-119"/>
			<point x="-41" y="-103" type="curve" smooth="yes"/>
			<point x="-41" y="-88"/>
			<point x="-40" y="-71"/>
			<point x="-37" y="-49" type="curve"/>
			<point x="-12" y="-44"/>
			<point x="13" y="-42"/>
			<point x="38" y="-42" type="curve" smooth="yes"/>
			<point x="62" y="-42"/>
			<point x="87" y="-44"/>
		</contour>
	</outline>
</glyph>
<glyph name="dvRxA" format="2">
	<advance width="412"/>
	<outline>
		<contour>
			<point x="138" y="7" type="curve"/>
			<point x="140" y="-15"/>
			<point x="141" y="-30"/>
			<point x="141" y="-46" type="curve" smooth="yes"/>
			<point x="141" y="-62"/>
			<point x="140" y="-78"/>
			<point x="138" y="-99" type="curve"/>
			<point x="112" y="-104"/>
			<point x="87" y="-107"/>
			<point x="62" y="-107" type="curve" smooth="yes"/>
			<point x="38" y="-107"/>
			<point x="14" y="-104"/>
			<point x="-11" y="-99" type="curve"/>
			<point x="-14" y="-79"/>
			<point x="-15" y="-63"/>
			<point x="-15" y="-47" type="curve" smooth="yes"/>
			<point x="-15" y="-32"/>
			<point x="-14" y="-15"/>
			<point x="-11" y="7" type="curve"/>
			<point x="14" y="12"/>
			<point x="39" y="14"/>
			<point x="64" y="14" type="curve" smooth="yes"/>
			<point x="88" y="14"/>
			<point x="113" y="12"/>
		</contour>
		<component base="dvRA"/>
	</outline>
</glyph>
<glyph name="dvSS_KA" format="2">
	<advance width="1285"/>
	<anchor x="751" y="-51" name="blwm.virama"/>
	<anchor x="898" y="607" name="abvm.bindu"/>
	<anchor x="833" y="-81" name="blwm.u"/>
	<anchor x="899" y="607" name="abvm.e"/>
	<outline>
		<contour>
			<point x="751" y="9" type="line"/>
			<point x="751" y="501" type="line"/>
			<point x="899" y="501" type="line"/>
			<point x="899" y="9" type="line"/>
		</contour>
		<contour>
			<point x="320" y="500" type="line"/>
			<point x="320" y="607" type="line"/>
			<point x="1310" y="607" type="line"/>
			<point x="1310" y="500" type="line"/>
		</contour>
		<contour>
			<point x="558" y="436" type="curve" smooth="yes"/>
			<point x="605" y="436"/>
			<point x="656" y="430"/>
			<point x="693" y="419" type="curve"/>
			<point x="691" y="305" type="line"/>
			<point x="687" y="304" type="line"/>
			<point x="664" y="310"/>
			<point x="637" y="315"/>
			<point x="601" y="315" type="curve" smooth="yes"/>
			<point x="539" y="315"/>
			<point x="525" y="298"/>
			<point x="525" y="248" type="curve" smooth="yes"/>
			<point x="525" y="198"/>
			<point x="539" y="181"/>
			<point x="628" y="181" type="curve" smooth="yes"/>
			<point x="682" y="181"/>
			<point x="726" y="190"/>
			<point x="763" y="210" type="curve"/>
			<point x="751" y="87" type="line"/>
			<point x="749" y="87" type="line"/>
			<point x="719" y="72"/>
			<point x="663" y="62"/>
			<point x="606" y="62" type="curve" smooth="yes"/>
			<point x="436" y="62"/>
			<point x="385" y="108"/>
			<point x="385" y="250" type="curve" smooth="yes"/>
			<point x="385" y="390"/>
			<point x="431" y="436"/>
		</contour>
		<contour>
			<point x="1092" y="60" type="curve" smooth="yes"/>
			<point x="1045" y="60"/>
			<point x="994" y="66"/>
			<point x="957" y="77" type="curve"/>
			<point x="959" y="191" type="line"/>
			<point x="963" y="192" type="line"/>
			<point x="986" y="186"/>
			<point x="1013" y="181"/>
			<point x="1049" y="181" type="curve" smooth="yes"/>
			<point x="1111" y="181"/>
			<point x="1125" y="198"/>
			<point x="1125" y="248" type="curve" smooth="yes"/>
			<point x="1125" y="298"/>
			<point x="1111" y="315"/>
			<point x="1022" y="315" type="curve" smooth="yes"/>
			<point x="968" y="315"/>
			<point x="924" y="306"/>
			<point x="887" y="286" type="curve"/>
			<point x="899" y="409" type="line"/>
			<point x="901" y="409" type="line"/>
			<point x="931" y="424"/>
			<point x="987" y="434"/>
			<point x="1044" y="434" type="curve" smooth="yes"/>
			<point x="1214" y="434"/>
			<point x="1265" y="388"/>
			<point x="1265" y="246" type="curve" smooth="yes"/>
			<point x="1265" y="106"/>
			<point x="1219" y="60"/>
		</contour>
		<component base="dvSS"/>
	</outline>
</glyph>
<glyph name="dvSS_MA" format="2">
	<advance width="966"/>
	<outline>
		<contour>
			<point x="-50" y="500" type="line"/>
			<point x="-50" y="607" type="line"/>
			<point x="429" y="607" type="line"/>
			<point x="429" y="500" type="line"/>
		</contour>
		<contour>
			<point x="270" y="100" type="curve" smooth="yes"/>
			<point x="109" y="100"/>
			<point x="50" y="143"/>
			<point x="50" y="317" type="curve" smooth="yes"/>
			<point x="50" y="513" type="line"/>
			<point x="186" y="514" type="line"/>
			<point x="186" y="302" type="line" smooth="yes"/>
			<point x="186" y="239"/>
			<point x="219" y="219"/>
			<point x="294" y="219" type="curve" smooth="yes"/>
			<point x="345" y="219"/>
			<point x="395" y="227"/>
			<point x="441" y="243" type="curve"/>
			<point x="465" y="139" type="line"/>
			<point x="411" y="115"/>
			<point x="346" y="100"/>
		</contour>
		<contour>
			<point x="438" y="238" type="line"/>
			<point x="144" y="430" type="line"/>
			<point x="183" y="488" type="line"/>
			<point x="469" y="296" type="line"/>
		</contour>
		<component base="dvMA" xOffset="345"/>
	</outline>
</glyph>
<glyph name="dvTH_NA" format="2">
	<advance width="1077"/>
	<anchor x="950" y="0" name="blwm"/>
	<outline>
		<contour>
			<point x="323" y="70" type="curve" smooth="yes"/>
			<point x="530" y="70"/>
			<point x="618" y="105"/>
			<point x="618" y="247" type="curve"/>
			<point x="513" y="247" type="line"/>
			<point x="513" y="216"/>
			<point x="431" y="196"/>
			<point x="332" y="196" type="curve" smooth="yes"/>
			<point x="228" y="196"/>
			<point x="185" y="221"/>
			<point x="182" y="265" type="curve"/>
			<point x="195" y="264"/>
			<point x="209" y="263"/>
			<point x="221" y="263" type="curve" smooth="yes"/>
			<point x="340" y="263"/>
			<point x="406" y="322"/>
			<point x="406" y="443" type="curve" smooth="yes"/>
			<point x="406" y="559"/>
			<point x="346" y="616"/>
			<point x="232" y="616" type="curve" smooth="yes"/>
			<point x="118" y="616"/>
			<point x="55" y="572"/>
			<point x="55" y="465" type="curve" smooth="yes"/>
			<point x="55" y="454"/>
			<point x="56" y="443"/>
			<point x="58" y="432" type="curve"/>
			<point x="181" y="432" type="line"/>
			<point x="181" y="434" type="line"/>
			<point x="179" y="440"/>
			<point x="178" y="448"/>
			<point x="178" y="455" type="curve" smooth="yes"/>
			<point x="178" y="481"/>
			<point x="190" y="500"/>
			<point x="225" y="500" type="curve" smooth="yes"/>
			<point x="259" y="500"/>
			<point x="273" y="484"/>
			<point x="273" y="444" type="curve" smooth="yes"/>
			<point x="273" y="385"/>
			<point x="237" y="366"/>
			<point x="145" y="366" type="curve"/>
			<point x="30" y="366" type="line"/>
			<point x="30" y="321" type="line" smooth="yes"/>
			<point x="30" y="151"/>
			<point x="106" y="70"/>
		</contour>
		<contour>
			<point x="613" y="154" type="curve" smooth="yes"/>
			<point x="696" y="154"/>
			<point x="716" y="164"/>
			<point x="716" y="251" type="curve" smooth="yes"/>
			<point x="716" y="340" type="line"/>
			<point x="616" y="340" type="line"/>
			<point x="534" y="340"/>
			<point x="513" y="329"/>
			<point x="513" y="247" type="curve" smooth="yes"/>
			<point x="513" y="171"/>
			<point x="533" y="154"/>
		</contour>
		<contour>
			<point x="628" y="228" type="line"/>
			<point x="986" y="229" type="line"/>
			<point x="986" y="341" type="line"/>
			<point x="628" y="340" type="line"/>
		</contour>
		<contour>
			<point x="868" y="9" type="line"/>
			<point x="1017" y="9" type="line"/>
			<point x="1017" y="501" type="line"/>
			<point x="868" y="501" type="line"/>
		</contour>
		<contour>
			<point x="466" y="500" type="line"/>
			<point x="1117" y="500" type="line"/>
			<point x="1117" y="607" type="line"/>
			<point x="466" y="607" type="line"/>
		</contour>
	</outline>
</glyph>
<glyph name="dvTH_VA" format="2">
	<advance width="1102"/>
	<outline>
		<contour>
			<point x="307" y="70" type="curve" smooth="yes"/>
			<point x="424" y="70"/>
			<point x="515" y="94"/>
			<point x="592" y="140" type="curve"/>
			<point x="573" y="264" type="line"/>
			<point x="491" y="217"/>
			<point x="403" y="196"/>
			<point x="324" y="196" type="curve" smooth="yes"/>
			<point x="230" y="196"/>
			<point x="175" y="217"/>
			<point x="172" y="265" type="curve"/>
			<point x="185" y="264"/>
			<point x="199" y="263"/>
			<point x="211" y="263" type="curve" smooth="yes"/>
			<point x="340" y="263"/>
			<point x="406" y="322"/>
			<point x="406" y="443" type="curve" smooth="yes"/>
			<point x="406" y="559"/>
			<point x="346" y="616"/>
			<point x="232" y="616" type="curve" smooth="yes"/>
			<point x="118" y="616"/>
			<point x="55" y="572"/>
			<point x="55" y="465" type="curve" smooth="yes"/>
			<point x="55" y="454"/>
			<point x="56" y="443"/>
			<point x="58" y="432" type="curve"/>
			<point x="181" y="432" type="line"/>
			<point x="181" y="434" type="line"/>
			<point x="179" y="440"/>
			<point x="178" y="448"/>
			<point x="178" y="455" type="curve" smooth="yes"/>
			<point x="178" y="481"/>
			<point x="190" y="500"/>
			<point x="225" y="500" type="curve" smooth="yes"/>
			<point x="259" y="500"/>
			<point x="273" y="484"/>
			<point x="273" y="444" type="curve" smooth="yes"/>
			<point x="273" y="385"/>
			<point x="237" y="366"/>
			<point x="145" y="366" type="curve"/>
			<point x="30" y="366" type="line"/>
			<point x="30" y="321" type="line" smooth="yes"/>
			<point x="30" y="151"/>
			<point x="110" y="70"/>
		</contour>
		<contour>
			<point x="738" y="56" type="curve" smooth="yes"/>
			<point x="793" y="56"/>
			<point x="854" y="67"/>
			<point x="891" y="85" type="curve"/>
			<point x="895" y="83" type="line"/>
			<point x="929" y="96" type="line"/>
			<point x="902" y="203" type="line"/>
			<point x="868" y="184"/>
			<point x="831" y="176"/>
			<point x="777" y="176" type="curve" smooth="yes"/>
			<point x="696" y="176"/>
			<point x="666" y="188"/>
			<point x="666" y="246" type="curve" smooth="yes"/>
			<point x="666" y="303"/>
			<point x="686" y="315"/>
			<point x="749" y="315" type="curve" smooth="yes"/>
			<point x="780" y="315"/>
			<point x="809" y="312"/>
			<point x="832" y="307" type="curve"/>
			<point x="836" y="308" type="line"/>
			<point x="836" y="423" type="line"/>
			<point x="797" y="433"/>
			<point x="754" y="439"/>
			<point x="704" y="439" type="curve" smooth="yes"/>
			<point x="576" y="439"/>
			<point x="516" y="385"/>
			<point x="516" y="251" type="curve" smooth="yes"/>
			<point x="516" y="111"/>
			<point x="576" y="56"/>
		</contour>
		<contour>
			<point x="894" y="9" type="line"/>
			<point x="1042" y="9" type="line"/>
			<point x="1042" y="501" type="line"/>
			<point x="894" y="501" type="line"/>
		</contour>
		<contour>
			<point x="466" y="500" type="line"/>
			<point x="1142" y="500" type="line"/>
			<point x="1142" y="607" type="line"/>
			<point x="466" y="607" type="line"/>
		</contour>
	</outline>
</glyph>
<glyph name="dvT_RA" format="2">
	<advance width="580"/>
	<outline>
		<contour>
			<point x="372" y="9" type="line"/>
			<point x="372" y="501" type="line"/>
			<point x="520" y="501" type="line"/>
			<point x="520" y="9" type="line"/>
		</contour>
		<contour>
			<point x="-8" y="500" type="line"/>
			<point x="-8" y="607" type="line"/>
			<point x="620" y="607" type="line"/>
			<point x="620" y="500" type="line"/>
		</contour>
		<contour>
			<point x="181" y="213" type="curve"/>
			<point x="33" y="213" type="line"/>
			<point x="33" y="370"/>
			<point x="90" y="407"/>
			<point x="223" y="407" type="curve" smooth="yes"/>
			<point x="300" y="407"/>
			<point x="370" y="388"/>
			<point x="386" y="366" type="curve"/>
			<point x="386" y="239" type="line"/>
			<point x="370" y="268"/>
			<point x="335" y="279"/>
			<point x="286" y="279" type="curve" smooth="yes"/>
			<point x="207" y="279"/>
			<point x="181" y="266"/>
		</contour>
		<contour>
			<point x="375" y="254" type="curve"/>
			<point x="375" y="125" type="line"/>
			<point x="368" y="125" type="line"/>
			<point x="214" y="7" type="line"/>
			<point x="1" y="7" type="line"/>
			<point x="1" y="12" type="line"/>
			<point x="96" y="90"/>
			<point x="260" y="200"/>
		</contour>
	</outline>
</glyph>
<glyph name="dvmE_Reph_Anusvara" format="2">
	<advance width="0"/>
	<anchor x="-83" y="606" name="_abvm.e"/>
	<outline>
		<contour>
			<point x="97" y="629" type="curve" smooth="yes"/>
			<point x="118" y="629"/>
			<point x="141" y="632"/>
			<point x="164" y="638" type="curve"/>
			<point x="166" y="656"/>
			<point x="167" y="670"/>
			<point x="167" y="684" type="curve" smooth="yes"/>
			<point x="167" y="699"/>
			<point x="166" y="712"/>
			<point x="164" y="731" type="curve"/>
			<point x="143" y="736"/>
			<point x="120" y="738"/>
			<point x="99" y="738" type="curve" smooth="yes"/>
			<point x="77" y="738"/>
			<point x="54" y="736"/>
			<point x="33" y="731" type="curve"/>
			<point x="30" y="712"/>
			<point x="30" y="697"/>
			<point x="30" y="683" type="curve" smooth="yes"/>
			<point x="30" y="669"/>
			<point x="30" y="656"/>
			<point x="33" y="638" type="curve"/>
			<point x="54" y="632"/>
			<point x="77" y="629"/>
		</contour>
		<contour>
			<point x="-194" y="599" type="line"/>
			<point x="-75" y="599" type="line"/>
			<point x="-75" y="607" type="line"/>
			<point x="-83" y="607" type="line"/>
			<point x="-301" y="862" type="line"/>
			<point x="-473" y="862" type="line"/>
			<point x="-473" y="859" type="line"/>
			<point x="-401" y="771" type="line"/>
			<point x="-334" y="695"/>
			<point x="-270" y="643"/>
			<point x="-214" y="611" type="curve" smooth="yes"/>
			<point x="-207" y="607" type="line"/>
		</contour>
		<contour>
			<point x="-75" y="599" type="curve"/>
			<point x="16" y="599" type="line"/>
			<point x="16" y="606" type="line"/>
			<point x="7" y="635"/>
			<point x="1" y="679"/>
			<point x="1" y="709" type="curve" smooth="yes"/>
			<point x="1" y="761"/>
			<point x="15" y="775"/>
			<point x="57" y="775" type="curve" smooth="yes"/>
			<point x="71" y="775"/>
			<point x="91" y="773"/>
			<point x="102" y="770" type="curve"/>
			<point x="104" y="771" type="line"/>
			<point x="104" y="864" type="line"/>
			<point x="87" y="870"/>
			<point x="59" y="874"/>
			<point x="37" y="874" type="curve" smooth="yes"/>
			<point x="-52" y="874"/>
			<point x="-105" y="837"/>
			<point x="-105" y="741" type="curve" smooth="yes"/>
			<point x="-105" y="696"/>
			<point x="-93" y="641"/>
		</contour>
	</outline>
</glyph>
<glyph name="dvmI.03" format="2">
	<advance width="268"/>
	<anchor x="702" y="651" name="abvm.i"/>
	<outline>
		<contour>
			<point x="60" y="9" type="line"/>
			<point x="60" y="501" type="line"/>
			<point x="208" y="501" type="line"/>
			<point x="208" y="9" type="line"/>
		</contour>
		<contour>
			<point x="-40" y="500" type="line"/>
			<point x="-40" y="607" type="line"/>
			<point x="308" y="607" type="line"/>
			<point x="308" y="500" type="line"/>
		</contour>
		<contour>
			<point x="208" y="623" type="curve"/>
			<point x="208" y="606" type="line"/>
			<point x="60" y="606" type="line"/>
			<point x="60" y="778"/>
			<point x="137" y="821"/>
			<point x="325" y="821" type="curve"/>
			<point x="431" y="821" type="line"/>
			<point x="595" y="821"/>
			<point x="697" y="797"/>
			<point x="697" y="649" type="curve"/>
			<point x="549" y="649" type="line"/>
			<point x="549" y="687"/>
			<point x="525" y="700"/>
			<point x="446" y="700" type="curve"/>
			<point x="325" y="700" type="line"/>
			<point x="249" y="700"/>
			<point x="208" y="690"/>
		</contour>
	</outline>
</glyph>
<glyph name="dvmI.47" format="2">
	<advance width="268"/>
	<anchor x="2327" y="652" name="abvm.i"/>
	<outline>
		<contour>
			<point x="60" y="9" type="line"/>
			<point x="60" y="501" type="line"/>
			<point x="208" y="501" type="line"/>
			<point x="208" y="9" type="line"/>
		</contour>
		<contour>
			<point x="-40" y="500" type="line"/>
			<point x="-40" y="607" type="line"/>
			<point x="308" y="607" type="line"/>
			<point x="308" y="500" type="line"/>
		</contour>
		<contour>
			<point x="211" y="624" type="curve"/>
			<point x="211" y="607" type="line"/>
			<point x="63" y="607" type="line"/>
			<point x="63" y="806"/>
			<point x="177" y="822"/>
			<point x="423" y="822" type="curve"/>
			<point x="1963" y="822" type="line"/>
			<point x="2203" y="822"/>
			<point x="2322" y="798"/>
			<point x="2322" y="650" type="curve"/>
			<point x="2174" y="650" type="line"/>
			<point x="2174" y="692"/>
			<point x="2110" y="701"/>
			<point x="1964" y="701" type="curve"/>
			<point x="423" y="701" type="line"/>
			<point x="277" y="701"/>
			<point x="211" y="691"/>
		</contour>
	</outline>
</glyph>
<glyph name="dvmII.004" format="2">
	<advance width="277"/>
	<outline>
		<contour>
			<point x="69" y="9" type="line"/>
			<point x="69" y="501" type="line"/>
			<point x="217" y="501" type="line"/>
			<point x="217" y="9" type="line"/>
		</contour>
		<contour>
			<point x="-40" y="500" type="line"/>
			<point x="-40" y="607" type="line"/>
			<point x="317" y="607" type="line"/>
			<point x="317" y="500" type="line"/>
		</contour>
		<contour>
			<point x="217" y="607" type="curve"/>
			<point x="69" y="607" type="line"/>
			<point x="69" y="624" type="line"/>
			<point x="69" y="691"/>
			<point x="26" y="701"/>
			<point x="-55" y="701" type="curve"/>
			<point x="-108" y="701" type="line"/>
			<point x="-191" y="701"/>
			<point x="-218" y="688"/>
			<point x="-218" y="650" type="curve"/>
			<point x="-366" y="650" type="line"/>
			<point x="-366" y="798"/>
			<point x="-263" y="822"/>
			<point x="-94" y="822" type="curve"/>
			<point x="-55" y="822" type="line"/>
			<point x="137" y="822"/>
			<point x="217" y="781"/>
		</contour>
	</outline>
</glyph>
<glyph name="dvmII_Reph_Anusvara.001" format="2">
	<advance width="276"/>
	<outline>
		<contour>
			<point x="68" y="9" type="line"/>
			<point x="68" y="501" type="line"/>
			<point x="216" y="501" type="line"/>
			<point x="216" y="9" type="line"/>
		</contour>
		<contour>
			<point x="-41" y="500" type="line"/>
			<point x="-41" y="607" type="line"/>
			<point x="366" y="607" type="line"/>
			<point x="366" y="500" type="line"/>
		</contour>
		<contour>
			<point x="222" y="607" type="line"/>
			<point x="222" y="733" type="line" smooth="yes"/>
			<point x="222" y="819"/>
			<point x="269" y="854"/>
			<point x="353" y="854" type="curve" smooth="yes"/>
			<point x="372" y="854"/>
			<point x="396" y="851"/>
			<point x="416" y="846" type="curve"/>
			<point x="416" y="754" type="line"/>
			<point x="414" y="754" type="line"/>
			<point x="402" y="756"/>
			<point x="386" y="758"/>
			<point x="372" y="758" type="curve" smooth="yes"/>
			<point x="328" y="758"/>
			<point x="316" y="737"/>
			<point x="316" y="694" type="curve" smooth="yes"/>
			<point x="316" y="607" type="line"/>
		</contour>
		<contour>
			<point x="465" y="717" type="curve"/>
			<point x="467" y="699"/>
			<point x="469" y="687"/>
			<point x="469" y="675" type="curve" smooth="yes"/>
			<point x="469" y="663"/>
			<point x="467" y="649"/>
			<point x="465" y="632" type="curve"/>
			<point x="445" y="627"/>
			<point x="425" y="625"/>
			<point x="405" y="625" type="curve" smooth="yes"/>
			<point x="385" y="625"/>
			<point x="366" y="627"/>
			<point x="346" y="632" type="curve"/>
			<point x="344" y="648"/>
			<point x="342" y="661"/>
			<point x="342" y="674" type="curve" smooth="yes"/>
			<point x="342" y="685"/>
			<point x="344" y="699"/>
			<point x="346" y="717" type="curve"/>
			<point x="366" y="722"/>
			<point x="386" y="723"/>
			<point x="406" y="723" type="curve" smooth="yes"/>
			<point x="426" y="723"/>
			<point x="446" y="722"/>
		</contour>
		<contour>
			<point x="-48" y="652" type="curve"/>
			<point x="-48" y="650" type="line"/>
			<point x="-188" y="651" type="line"/>
			<point x="-190" y="655"/>
			<point x="-191" y="662"/>
			<point x="-191" y="667" type="curve" smooth="yes"/>
			<point x="-191" y="777"/>
			<point x="-141" y="829"/>
			<point x="9" y="829" type="curve" smooth="yes"/>
			<point x="159" y="829"/>
			<point x="216" y="770"/>
			<point x="216" y="607" type="curve"/>
			<point x="83" y="607" type="line"/>
			<point x="83" y="620" type="line"/>
			<point x="83" y="702"/>
			<point x="72" y="721"/>
			<point x="17" y="721" type="curve" smooth="yes"/>
			<point x="-38" y="721"/>
			<point x="-49" y="701"/>
			<point x="-49" y="669" type="curve" smooth="yes"/>
			<point x="-49" y="665"/>
			<point x="-49" y="657"/>
		</contour>
	</outline>
</glyph>
<glyph name="dvmII_Reph_Anusvara" format="2">
	<advance width="274"/>
	<outline>
		<contour>
			<point x="66" y="9" type="line"/>
			<point x="66" y="501" type="line"/>
			<point x="214" y="501" type="line"/>
			<point x="214" y="9" type="line"/>
		</contour>
		<contour>
			<point x="-70" y="652" type="curve"/>
			<point x="-70" y="650" type="line"/>
			<point x="-210" y="651" type="line"/>
			<point x="-212" y="655"/>
			<point x="-213" y="662"/>
			<point x="-213" y="667" type="curve" smooth="yes"/>
			<point x="-213" y="777"/>
			<point x="-160" y="829"/>
			<point x="-3" y="829" type="curve" smooth="yes"/>
			<point x="177" y="829"/>
			<point x="214" y="770"/>
			<point x="214" y="607" type="curve"/>
			<point x="81" y="607" type="line"/>
			<point x="81" y="620" type="line"/>
			<point x="81" y="702"/>
			<point x="69" y="721"/>
			<point x="5" y="721" type="curve" smooth="yes"/>
			<point x="-60" y="721"/>
			<point x="-71" y="701"/>
			<point x="-71" y="669" type="curve" smooth="yes"/>
			<point x="-71" y="665"/>
			<point x="-71" y="657"/>
		</contour>
		<contour>
			<point x="-43" y="500" type="line"/>
			<point x="-43" y="607" type="line"/>
			<point x="364" y="607" type="line"/>
			<point x="364" y="500" type="line"/>
		</contour>
		<contour>
			<point x="220" y="607" type="line"/>
			<point x="220" y="733" type="line" smooth="yes"/>
			<point x="220" y="819"/>
			<point x="267" y="854"/>
			<point x="351" y="854" type="curve" smooth="yes"/>
			<point x="370" y="854"/>
			<point x="394" y="851"/>
			<point x="414" y="846" type="curve"/>
			<point x="414" y="754" type="line"/>
			<point x="412" y="754" type="line"/>
			<point x="400" y="756"/>
			<point x="384" y="758"/>
			<point x="370" y="758" type="curve" smooth="yes"/>
			<point x="326" y="758"/>
			<point x="314" y="737"/>
			<point x="314" y="694" type="curve" smooth="yes"/>
			<point x="314" y="607" type="line"/>
		</contour>
		<contour>
			<point x="463" y="717" type="curve"/>
			<point x="465" y="699"/>
			<point x="467" y="687"/>
			<point x="467" y="675" type="curve" smooth="yes"/>
			<point x="467" y="663"/>
			<point x="465" y="649"/>
			<point x="463" y="632" type="curve"/>
			<point x="443" y="627"/>
			<point x="423" y="625"/>
			<point x="403" y="625" type="curve" smooth="yes"/>
			<point x="383" y="625"/>
			<point x="364" y="627"/>
			<point x="344" y="632" type="curve"/>
			<point x="342" y="648"/>
			<point x="340" y="661"/>
			<point x="340" y="674" type="curve" smooth="yes"/>
			<point x="340" y="685"/>
			<point x="342" y="699"/>
			<point x="344" y="717" type="curve"/>
			<point x="364" y="722"/>
			<point x="384" y="723"/>
			<point x="404" y="723" type="curve" smooth="yes"/>
			<point x="424" y="723"/>
			<point x="444" y="722"/>
		</contour>
	</outline>
</glyph>
